<svg width="24" height="24" viewBox="0 0 24 24" fill="none" xmlns="http://www.w3.org/2000/svg">

<path d="M0.400085 23.4108C0.322449 23.4108 0.245178 23.3881 0.178345 23.3436C0.0668335 23.2699 0 23.1449 0 23.0109V18.2106C0 18.0386 0.110046 17.8857 0.272827 17.8314C0.390381 17.7918 0.655701 17.6396 0.868469 17.517C1.14203 17.3593 1.40039 17.2105 1.58807 17.1456C1.79846 17.0729 2.01361 17.0112 2.22858 16.9497C2.54736 16.8582 2.84857 16.7717 3.13184 16.6505C3.36694 16.55 3.5766 16.3821 3.79852 16.2041C4.03857 16.012 4.28668 15.8124 4.59778 15.67C5.12421 15.4285 5.69824 15.3549 6.25836 15.4521C6.59033 15.5105 6.92963 15.6264 7.26764 15.796C7.59595 15.9609 7.86401 16.1765 8.12329 16.3857C8.21924 16.4628 8.31519 16.5405 8.41443 16.6148C8.73212 16.8528 9.07837 17.0577 9.44366 17.2249C10.0204 17.4877 10.8842 17.7629 11.7239 17.5814C11.9273 17.5373 12.1265 17.471 12.3375 17.4001C12.6226 17.3049 12.9179 17.2061 13.2442 17.1577C13.8466 17.0676 14.3851 17.0869 14.8455 17.2141C15.2767 17.3337 15.6052 17.6298 15.7709 18.0485C15.8513 18.2518 15.8912 18.4541 15.9293 18.6502C16.0911 18.6394 16.2528 18.6198 16.4145 18.601C16.5624 18.5834 16.7108 18.5662 16.8593 18.5537C17.298 18.5178 17.7376 18.4845 18.1778 18.4601C19.205 18.4014 20.1985 18.3166 21.0602 17.9302C21.587 17.6946 22.4767 17.6113 23.1575 17.9097C23.5563 18.085 23.8315 18.3702 23.954 18.7357V18.7363C24.1196 19.231 23.824 19.7798 23.2952 19.9598C22.8691 20.1042 22.444 20.2515 22.0186 20.3987L19.797 21.1666C19.6923 21.2031 19.5877 21.2435 19.4833 21.2844C19.2361 21.3807 18.9802 21.4803 18.7009 21.5356C18.1745 21.6403 17.6841 21.6315 17.2094 21.6224C16.9957 21.6183 16.7796 21.6136 16.5568 21.6211C15.9091 21.6399 15.2732 21.7511 14.6664 21.9516C14.4692 22.0168 14.2734 22.0915 14.0779 22.166C13.6111 22.344 13.1279 22.528 12.5999 22.6012C11.9934 22.6844 11.3218 22.6408 10.7289 22.6016L10.4962 22.5864C10.0133 22.5564 9.53375 22.4568 9.0705 22.3608C8.7301 22.29 8.40839 22.2231 8.08649 22.1823C7.20923 22.0699 6.44678 22.0516 5.755 22.1272C4.28705 22.2876 1.94055 22.8005 0.554443 23.3804C0.504822 23.4009 0.452454 23.4108 0.400085 23.4108ZM0.799988 18.4702V22.4288C2.29688 21.8972 4.33777 21.4772 5.66821 21.3316C6.42316 21.2487 7.2475 21.2675 8.18848 21.3884C8.54077 21.4336 8.89288 21.5066 9.23328 21.5775C9.68921 21.672 10.1201 21.7615 10.5461 21.7879L10.7822 21.8031C11.3637 21.8415 11.9654 21.8811 12.4911 21.8091C12.9287 21.7487 13.3488 21.5883 13.7935 21.4188C14.0006 21.3398 14.2072 21.2607 14.4159 21.1923C15.0963 20.9674 15.8088 20.8427 16.5341 20.8211C16.7701 20.8143 16.9984 20.8178 17.2245 20.8227C17.6768 20.8312 18.1036 20.8387 18.5457 20.7512C18.7562 20.7094 18.9686 20.6263 19.1933 20.5391C19.3074 20.4946 19.4214 20.4503 19.5357 20.4106L21.7579 19.6419C22.1843 19.4947 22.6108 19.3471 23.0383 19.2014C23.1352 19.1686 23.2236 19.0734 23.1956 18.9893C23.1456 18.8397 23.0279 18.7262 22.8367 18.6421C22.3971 18.4493 21.7423 18.5006 21.3878 18.6597C20.4018 19.1014 19.3286 19.1949 18.2238 19.2583C17.7905 19.283 17.3577 19.3154 16.9257 19.351C16.786 19.3623 16.6472 19.3786 16.5088 19.3951C16.3109 19.4181 16.1124 19.4414 15.9131 19.4522C15.7723 19.4702 15.6244 19.4886 15.4823 19.4238C15.2287 19.3118 15.1835 19.1318 15.1875 18.999C15.1747 18.9598 15.1615 18.8903 15.1479 18.8198C15.1148 18.6462 15.0831 18.4827 15.028 18.343C14.9775 18.2157 14.8683 18.0502 14.6336 17.985C14.2819 17.8878 13.8543 17.8753 13.363 17.9489C13.1063 17.9874 12.8566 18.0705 12.5922 18.1586C12.3702 18.2329 12.141 18.3098 11.8951 18.3633C10.8402 18.5914 9.79962 18.2662 9.11206 17.9529C8.69476 17.7618 8.29926 17.5274 7.93597 17.2553C7.82922 17.1753 7.72559 17.0922 7.62231 17.0085C7.38556 16.8177 7.16199 16.6377 6.91003 16.5114C6.64105 16.3764 6.37592 16.2856 6.12067 16.24C5.72113 16.17 5.31024 16.2248 4.93176 16.3976C4.71112 16.4989 4.51135 16.6589 4.30023 16.8285C4.04626 17.0321 3.78333 17.2425 3.44733 17.3866C3.11847 17.5274 2.77899 17.625 2.45087 17.7189C2.24927 17.777 2.0473 17.8345 1.8501 17.9026C1.73456 17.9425 1.47656 18.0914 1.26892 18.2109C1.10284 18.3054 0.94281 18.397 0.799988 18.4702Z" fill="#B78131"/>
<path d="M11.8281 20.5084C11.0832 20.5084 10.3367 20.4639 9.60114 20.3754C8.66621 20.263 7.46211 20.0579 6.43892 19.4658C6.24775 19.3554 6.18257 19.1105 6.29298 18.9194C6.40376 18.7278 6.64857 18.6621 6.83937 18.7738C7.73622 19.2925 8.83741 19.4782 9.69636 19.5815C10.6112 19.6914 11.5439 19.7298 12.4673 19.6974L12.5372 19.6946C13.3169 19.667 14.1229 19.6375 14.7557 19.2719C14.9797 19.1422 15.1798 18.9805 15.351 18.7921C15.4993 18.6286 15.7522 18.6158 15.9157 18.7641C16.0794 18.9122 16.0922 19.1655 15.9437 19.329C15.717 19.5798 15.4521 19.7935 15.1562 19.9647C14.3509 20.4304 13.4024 20.4642 12.566 20.4943L12.496 20.4967C12.2739 20.5043 12.0513 20.5084 11.8281 20.5084Z" fill="#B78131"/>
<path d="M14.8005 15.8104C11.7122 15.8104 9.2002 13.4031 9.2002 10.4445C9.2002 5.85719 14.3068 0.928177 14.524 0.720169C14.6789 0.572403 14.9221 0.572403 15.0764 0.720169C15.2941 0.928177 20.4008 5.85756 20.4008 10.4445C20.4008 13.4035 17.8885 15.8104 14.8005 15.8104ZM14.8005 1.57655C13.7408 2.66823 10.0002 6.78315 10.0002 10.4445C10.0002 12.9622 12.1535 15.0104 14.8005 15.0104C17.4474 15.0104 19.6006 12.9622 19.6006 10.4445C19.6006 6.77913 15.8605 2.66786 14.8005 1.57655Z" fill="#B78131"/>
<path d="M11.6031 12.3902C11.462 12.3902 11.3256 12.3155 11.2527 12.1835C10.9575 11.6486 10.8015 11.0475 10.8008 10.4449C10.8002 10.2242 10.9795 10.045 11.2003 10.0446H11.2007C11.4215 10.0446 11.6004 10.2233 11.6008 10.4442C11.6011 10.9118 11.7231 11.3798 11.9531 11.7966C12.06 11.9903 11.9895 12.2335 11.7963 12.3402C11.7348 12.3743 11.6683 12.3902 11.6031 12.3902Z" fill="#B78131"/>
<path d="M14.8011 14.2105C14.2115 14.2099 13.6477 14.07 13.027 13.7703C12.8281 13.6743 12.7446 13.4352 12.8406 13.2363C12.9365 13.0371 13.1758 12.9543 13.3745 13.0499C13.883 13.2951 14.3362 13.4095 14.8011 13.4099C15.0219 13.4099 15.201 13.5892 15.2006 13.8104C15.201 14.0316 15.0219 14.2105 14.8011 14.2105Z" fill="#B78131"/>

</svg>
