<svg width="34" height="28" viewBox="0 0 34 28" fill="none" xmlns="http://www.w3.org/2000/svg">

<path d="M23.6833 8.63318C23.4452 8.81512 23.3996 9.15562 23.5815 9.39369C24.5998 10.7264 25.1379 12.3194 25.1379 14.0002C25.1379 18.1885 21.7305 21.5959 17.5422 21.5959C13.3539 21.5959 9.94643 18.1885 9.94643 14.0002C9.94643 9.81189 13.3539 6.40444 17.5422 6.40444C19.223 6.40444 20.8159 6.94258 22.1487 7.96092C22.3867 8.14286 22.7273 8.09728 22.9093 7.85914C23.0912 7.62106 23.0456 7.28056 22.8075 7.09862C21.2839 5.93459 19.4632 5.31934 17.5422 5.31934C12.7556 5.31934 8.86133 9.21357 8.86133 14.0002C8.86133 18.7868 12.7556 22.681 17.5422 22.681C22.3288 22.681 26.223 18.7868 26.223 14.0002C26.223 12.0792 25.6078 10.2585 24.4437 8.73496C24.2619 8.49689 23.9214 8.45124 23.6833 8.63318Z" fill="#777777"/>
<path d="M17.5432 2.42578C11.1611 2.42578 5.96875 7.61802 5.96875 14.0002C5.96875 20.3825 11.1611 25.5747 17.5432 25.5747C23.9255 25.5747 29.1177 20.3825 29.1177 14.0002C29.1177 7.61802 23.9255 2.42578 17.5432 2.42578ZM17.5432 24.4896C11.7594 24.4896 7.05386 19.7841 7.05386 14.0002C7.05386 8.21642 11.7594 3.51089 17.5432 3.51089C23.3271 3.51089 28.0326 8.21642 28.0326 14.0002C28.0326 19.7841 23.3271 24.4896 17.5432 24.4896Z" fill="#777777"/>
<path d="M4.88298 2.42578C4.58334 2.42578 4.34043 2.66863 4.34043 2.96833V7.48961H3.25532V2.96833C3.25532 2.66863 3.0124 2.42578 2.71277 2.42578C2.41313 2.42578 2.17021 2.66863 2.17021 2.96833V7.48961H1.08511V2.96833C1.08511 2.66863 0.842187 2.42578 0.542553 2.42578C0.242919 2.42578 0 2.66863 0 2.96833V9.47897C0 10.7891 0.933481 11.8851 2.17021 12.1371V25.0322C2.17021 25.3319 2.41313 25.5747 2.71277 25.5747C3.0124 25.5747 3.25532 25.3319 3.25532 25.0322V12.1371C4.49205 11.8851 5.42553 10.7891 5.42553 9.47897V2.96833C5.42553 2.66863 5.18261 2.42578 4.88298 2.42578ZM2.71277 11.1066C1.81524 11.1066 1.08511 10.3764 1.08511 9.47897V8.57472H4.34043V9.47897C4.34043 10.3764 3.61029 11.1066 2.71277 11.1066Z" fill="#777777"/>
<path d="M33.4569 2.42578C31.961 2.42578 30.7441 3.64269 30.7441 5.13855V15.0854C30.7441 15.3851 30.987 15.6279 31.2867 15.6279H32.9144V25.0322C32.9144 25.3319 33.1572 25.5747 33.4569 25.5747C33.7566 25.5747 33.9995 25.3319 33.9995 25.0322V2.96833C33.9995 2.66863 33.7566 2.42578 33.4569 2.42578ZM32.9144 14.5428H31.8292V5.13855C31.8292 4.4312 32.2828 3.82781 32.9144 3.60385V14.5428Z" fill="#777777"/>

</svg>
