<svg width="42" height="39" viewBox="0 0 42 39" fill="none" xmlns="http://www.w3.org/2000/svg">
<path d="M30.6421 10.7339C30.5414 10.7339 30.4394 10.7117 30.344 10.6645C30.0161 10.5035 29.8835 10.1133 30.0485 9.79285C31.9668 6.07254 34.669 2.48188 35.4003 1.76833C35.9049 1.27584 36.5744 1.00282 37.2868 1C37.2901 1 37.294 1 37.2978 1C38.0076 1 38.6733 1.26883 39.1733 1.75727C39.4331 2.01085 39.4331 2.4219 39.1733 2.67526C38.9136 2.92884 38.4927 2.92884 38.233 2.67526C37.9822 2.4305 37.6336 2.29645 37.292 2.29832C36.9335 2.29991 36.5958 2.4378 36.3407 2.68661C35.8062 3.20808 33.1716 6.62378 31.237 10.3767C31.1201 10.6033 30.8857 10.7339 30.6421 10.7339Z" fill="#E5C18A"/>
<path d="M32.6374 4.89502H23.5085C22.4503 4.89502 21.4355 5.30534 20.6872 6.0358L2.4394 23.8491C1.91994 24.3561 1.91994 25.1781 2.4394 25.6851L14.6651 37.6197C15.1845 38.1268 16.0265 38.1268 16.5459 37.6197L34.7936 19.8064C35.5419 19.076 35.9623 18.0853 35.9623 17.0523V8.14076C35.9624 6.34821 34.4737 4.89502 32.6374 4.89502ZM32.0531 11.4653C31.274 12.2259 30.0108 12.2259 29.2318 11.4653C28.4527 10.7047 28.4527 9.47167 29.2318 8.71115C30.011 7.95063 31.2741 7.95056 32.0531 8.71115C32.8321 9.47175 32.8322 10.7048 32.0531 11.4653Z" fill="#B78131"/>
<path d="M4.43542 25.7976L22.6831 7.98423C23.4314 7.25384 24.4462 6.84345 25.5044 6.84345H34.6333C35.0288 6.84345 35.4027 6.9225 35.7546 7.04615C35.2931 5.79487 34.0782 4.89502 32.6374 4.89502H23.5085C22.4503 4.89502 21.4355 5.30534 20.6872 6.0358L2.4394 23.8491C1.91994 24.3561 1.91994 25.1781 2.4394 25.6851L4.43535 27.6335C3.91596 27.1267 3.91596 26.3046 4.43542 25.7976Z" fill="#E6C18A"/>
<path d="M30.6433 10.7339C30.3998 10.7339 30.1654 10.6033 30.0485 10.3764C29.8836 10.0563 30.016 9.66602 30.344 9.50473C34.1878 7.61715 37.6869 5.04464 38.2213 4.52281C38.4765 4.27371 38.6175 3.94403 38.6194 3.59412C38.6207 3.24609 38.4836 2.91988 38.233 2.67526C37.9825 2.43064 37.6336 2.29645 37.2921 2.29832C36.9336 2.29991 36.5959 2.4378 36.3407 2.68661C36.081 2.94019 35.6601 2.94019 35.4004 2.68661C35.1406 2.43339 35.1406 2.0222 35.4004 1.76862C35.9048 1.27577 36.5743 1.00282 37.2867 1C37.29 1 37.2939 1 37.2978 1C38.0076 1 38.6732 1.26883 39.1733 1.75727C39.6766 2.24824 39.9519 2.90246 39.9493 3.59918C39.9461 4.29423 39.6668 4.94823 39.1616 5.4408C38.431 6.15464 34.7521 8.79313 30.9413 10.6648C30.8459 10.7117 30.7433 10.7339 30.6433 10.7339Z" fill="#B78131"/>
<path d="M20.0031 29.3663C19.544 29.3663 19.1719 29.003 19.1719 28.5548V15.7023C19.1719 15.2541 19.544 14.8909 20.0031 14.8909C20.4623 14.8909 20.8344 15.2541 20.8344 15.7023V28.5549C20.8344 29.0031 20.4623 29.3663 20.0031 29.3663Z" fill="white"/>
<path d="M15.3009 24.8875C14.5463 24.8875 13.8364 24.6003 13.3026 24.0792C12.7688 23.5584 12.4746 22.8655 12.4746 22.1285C12.4746 21.3915 12.7688 20.6987 13.3026 20.1776C13.8364 19.6567 14.5462 19.3696 15.3009 19.3696C16.0561 19.3696 16.766 19.6568 17.2991 20.1782C17.8329 20.699 18.1271 21.3919 18.1271 22.1285C18.1271 22.8655 17.8329 23.5584 17.2991 24.0795C16.766 24.6003 16.0562 24.8875 15.3009 24.8875ZM15.3009 20.9925C14.9905 20.9925 14.6982 21.1107 14.4781 21.3254C14.258 21.54 14.1371 21.8252 14.1371 22.1285C14.1371 22.4318 14.2579 22.7171 14.4781 22.9315C14.9184 23.3616 15.6834 23.3596 16.1237 22.9321C16.3438 22.7173 16.4647 22.432 16.4647 22.1286C16.4647 21.8253 16.3438 21.54 16.1237 21.3256C16.1237 21.3254 16.1237 21.3254 16.1237 21.325C15.9035 21.1107 15.6119 20.9925 15.3009 20.9925Z" fill="white"/>
<path d="M24.7052 24.8875C23.9499 24.8875 23.2401 24.6003 22.7069 24.0789C22.1731 23.5585 21.8789 22.8656 21.8789 22.1286C21.8789 21.3917 22.1731 20.6988 22.7069 20.1777C23.2401 19.6569 23.9498 19.3698 24.7052 19.3698C25.4597 19.3698 26.1696 19.6569 26.7034 20.178C27.2372 20.6991 27.5314 21.3917 27.5314 22.1287C27.5314 22.8657 27.2372 23.5586 26.7034 24.0797C26.1695 24.6003 25.4597 24.8875 24.7052 24.8875ZM24.7052 20.9925C24.3941 20.9925 24.1025 21.1108 23.8824 21.3251C23.6623 21.54 23.5414 21.8253 23.5414 22.1286C23.5414 22.4319 23.6622 22.7172 23.8824 22.9316C24.3227 23.3611 25.0877 23.3621 25.528 22.9319C25.7481 22.7172 25.869 22.432 25.869 22.1287C25.869 21.8254 25.7481 21.5401 25.528 21.3258C25.528 21.3255 25.528 21.3255 25.528 21.3255C25.3078 21.1108 25.0156 20.9925 24.7052 20.9925Z" fill="white"/>
<ellipse cx="32.2681" cy="18.5" rx="0.512197" ry="0.500001" fill="white"/>
<ellipse cx="33.2925" cy="15.5" rx="0.512194" ry="0.5" fill="#EEEEEE"/>
<ellipse cx="11.7808" cy="26.5" rx="0.512196" ry="0.5" fill="white"/>
<ellipse cx="8.70751" cy="27.5" rx="0.512195" ry="0.5" fill="white"/>
<ellipse cx="30.2192" cy="16.5" rx="0.512197" ry="0.500001" fill="white"/>
<ellipse cx="9.73192" cy="24.5" rx="0.512195" ry="0.500001" fill="#EEEEEE"/>
</svg>
