<svg width="28" height="28" viewBox="0 0 28 28" fill="none" xmlns="http://www.w3.org/2000/svg">

<path d="M20.8247 10.0327L17.1372 0.619872C16.9322 0.118295 16.3641 -0.127614 15.8581 0.0661784L6.44535 3.75377C5.93927 3.95407 5.69143 4.52673 5.89166 5.03281L9.60693 14.4456C9.80723 14.9517 10.3799 15.1995 10.886 14.9993L20.2711 11.3117C20.7771 11.1114 21.025 10.5387 20.8247 10.0327ZM10.5925 13.9196L6.9935 4.7615L16.1516 1.15695L19.7506 10.3206L10.5925 13.9196Z" fill="#777777"/>
<path d="M11.7343 15.9404H1.65159C1.10724 15.9404 0.666016 16.3817 0.666016 16.926V27.0143C0.666016 27.5587 1.10724 27.9999 1.65159 27.9999H11.7343C12.2787 27.9999 12.7199 27.5587 12.7199 27.0143V16.926C12.7199 16.3817 12.2786 15.9404 11.7343 15.9404ZM11.6125 26.887H1.7734V17.0478H11.6125V26.887Z" fill="#777777"/>
<path d="M26.622 15.8847L16.877 13.2934C16.3457 13.1638 15.8085 13.4841 15.67 14.0132L13.0787 23.7582C12.9379 24.284 13.2501 24.8244 13.7759 24.9651C13.776 24.9652 13.7762 24.9652 13.7764 24.9653L23.5213 27.5566C24.0471 27.6973 24.5875 27.3852 24.7283 26.8594C24.7283 26.8593 24.7283 26.8591 24.7284 26.8589L27.2975 17.0918C27.4399 16.5725 27.1391 16.035 26.622 15.8847ZM23.693 26.4049L14.1805 23.9077L16.7109 14.4008L26.2178 16.9312L23.693 26.4049Z" fill="#777777"/>
<path d="M16.6678 8.62666C16.5672 8.43535 16.4342 8.26302 16.2747 8.11726L13.5062 5.19929L13.1795 4.84492C13.0974 4.75979 13.0065 4.68373 12.9082 4.61791C12.8088 4.55029 12.6951 4.50669 12.576 4.49056C12.2926 4.47077 12.0156 4.58074 11.823 4.78955C11.7468 4.88299 11.6938 4.99297 11.6679 5.1107C11.6398 5.24912 11.6268 5.39024 11.6292 5.5315C11.6292 5.69208 11.6292 5.8305 11.6292 5.94678V9.97767C11.6403 10.1438 11.6495 10.2711 11.6569 10.3597C11.6611 10.443 11.6779 10.5251 11.7067 10.6033C11.7605 10.7333 11.8673 10.834 12.0002 10.8802C12.135 10.9356 12.2861 10.9356 12.421 10.8802C12.5581 10.8412 12.6676 10.7379 12.7144 10.6033C12.7559 10.3901 12.7708 10.1724 12.7587 9.95552V9.16374L14.9458 8.30551L15.4663 8.85921L15.7044 9.0973C15.7722 9.169 15.8484 9.23219 15.9314 9.28555C15.9937 9.32307 16.0638 9.34577 16.1362 9.35199C16.2176 9.35788 16.2991 9.34459 16.3743 9.31324C16.5044 9.25981 16.6094 9.15882 16.6678 9.03085C16.7229 8.90177 16.7229 8.75574 16.6678 8.62666ZM12.7089 8.22246L12.6314 5.70869L14.3146 7.59125L12.7089 8.22246Z" fill="#777777"/>
<path d="M8.07502 21.5385C8.60248 21.3415 8.94854 20.8335 8.93878 20.2705C8.93927 20.1081 8.9111 19.9469 8.85573 19.7943C8.8014 19.6429 8.72076 19.5024 8.61764 19.379C8.51597 19.2562 8.39429 19.1513 8.25774 19.069C8.08782 18.9673 7.89977 18.8996 7.70404 18.8696C7.46768 18.8335 7.22883 18.8169 6.98977 18.8198H5.15151C4.95211 18.7981 4.75236 18.8579 4.59781 18.9859C4.4715 19.1413 4.41184 19.3403 4.4317 19.5396V23.8806C4.41149 24.079 4.46901 24.2775 4.59227 24.4343C4.74669 24.5669 4.94934 24.629 5.15151 24.6059H6.91779C7.17561 24.598 7.43259 24.5739 7.68743 24.534C7.89638 24.5094 8.10125 24.4573 8.29649 24.3789C8.56988 24.2651 8.80313 24.0723 8.96647 23.8252C9.13327 23.5642 9.21992 23.2601 9.21563 22.9504C9.22836 22.2653 8.74741 21.67 8.07502 21.5385ZM5.61107 19.7113H6.53574C6.85786 19.6946 7.17997 19.7436 7.48256 19.8552C7.69193 19.9563 7.81582 20.1775 7.79263 20.4089C7.79388 20.5394 7.75941 20.6676 7.69297 20.7799C7.61683 20.9286 7.48575 21.0419 7.32753 21.0955C7.1082 21.1589 6.88014 21.1869 6.65202 21.1786H5.58339L5.61107 19.7113ZM8.02518 22.8729C8.02518 23.4413 7.63019 23.7256 6.84028 23.7256H5.58339L5.61107 22.0423H6.81259C7.13152 22.0222 7.44976 22.0912 7.73173 22.2416C7.935 22.3847 8.04678 22.6252 8.02518 22.8729Z" fill="#777777"/>
<path d="M22.9737 18.7868C22.8325 18.4374 22.606 18.129 22.3148 17.8898C21.9936 17.6218 21.6145 17.4323 21.2074 17.3361C20.8472 17.2365 20.4711 17.2083 20.1 17.253C19.7432 17.2966 19.3997 17.4155 19.0923 17.6019C18.7743 17.7977 18.5008 18.058 18.2895 18.366C18.0514 18.7165 17.877 19.1065 17.7745 19.5176C17.7026 19.78 17.658 20.049 17.6416 20.3205C17.6274 20.5744 17.6441 20.8292 17.6915 21.0791C17.7361 21.3163 17.8105 21.547 17.913 21.7656C18.0195 21.99 18.1616 22.1957 18.3338 22.3747C18.5053 22.5504 18.7034 22.698 18.9207 22.8121C19.1687 22.9411 19.4306 23.0414 19.7014 23.1111C20.0483 23.2108 20.4118 23.239 20.77 23.1942C21.0718 23.1477 21.3604 23.0383 21.6171 22.873C21.8293 22.7404 22.0167 22.5718 22.1708 22.3747C22.3019 22.2114 22.398 22.023 22.4532 21.821C22.4921 21.6905 22.474 21.5498 22.4034 21.4334C22.3361 21.3168 22.2241 21.2328 22.0933 21.2009C21.9654 21.1548 21.8231 21.1733 21.7113 21.2507C21.6043 21.3383 21.5126 21.4431 21.44 21.5608C21.268 21.811 21.025 22.0039 20.7423 22.1145C20.4545 22.2083 20.1443 22.2083 19.8564 22.1145C19.5949 22.0637 19.3519 21.9432 19.1532 21.7656C18.961 21.547 18.8411 21.2743 18.8099 20.9849C18.7728 20.6125 18.8086 20.2363 18.9151 19.8775C19.0139 19.3216 19.2991 18.8158 19.7235 18.4435C20.0782 18.1674 20.5447 18.0807 20.9749 18.2109C21.2372 18.2711 21.4749 18.4103 21.6559 18.6096C21.8331 18.8304 21.9546 19.0905 22.0103 19.3681C22.0385 19.5152 22.0889 19.657 22.1598 19.789C22.2312 19.8881 22.3384 19.9557 22.4588 19.9772C22.5853 20.0122 22.7209 19.9899 22.8297 19.9163C22.9422 19.8483 23.0237 19.739 23.0567 19.6118C23.1151 19.3348 23.0861 19.0465 22.9737 18.7868Z" fill="#777777"/>
</svg>
