<svg width="447" height="79" viewBox="0 0 447 79" fill="none" xmlns="http://www.w3.org/2000/svg">
<path d="M84.18 57H94.74V58.7H86.16V62.7H90.52C92.1867 62.7 93.4533 63.0467 94.32 63.74C95.1867 64.4333 95.62 65.4333 95.62 66.74C95.62 68.1133 95.1467 69.1667 94.2 69.9C93.2667 70.6333 91.9267 71 90.18 71H84.18V57ZM90.1 69.42C91.2467 69.42 92.12 69.2 92.72 68.76C93.32 68.32 93.62 67.6733 93.62 66.82C93.62 65.1267 92.4467 64.28 90.1 64.28H86.16V69.42H90.1ZM104.109 60.3C105.136 60.3 106.056 60.5267 106.869 60.98C107.682 61.4333 108.316 62.0667 108.769 62.88C109.236 63.6933 109.469 64.6333 109.469 65.7C109.469 66.7667 109.236 67.7133 108.769 68.54C108.316 69.3533 107.682 69.9867 106.869 70.44C106.056 70.8933 105.136 71.12 104.109 71.12C103.349 71.12 102.649 70.9733 102.009 70.68C101.382 70.3867 100.849 69.96 100.409 69.4V74.88H98.4889V60.4H100.329V62.08C100.756 61.4933 101.296 61.0533 101.949 60.76C102.602 60.4533 103.322 60.3 104.109 60.3ZM103.949 69.44C104.629 69.44 105.236 69.2867 105.769 68.98C106.316 68.66 106.742 68.22 107.049 67.66C107.369 67.0867 107.529 66.4333 107.529 65.7C107.529 64.9667 107.369 64.32 107.049 63.76C106.742 63.1867 106.316 62.7467 105.769 62.44C105.236 62.1333 104.629 61.98 103.949 61.98C103.282 61.98 102.676 62.14 102.129 62.46C101.596 62.7667 101.169 63.2 100.849 63.76C100.542 64.32 100.389 64.9667 100.389 65.7C100.389 66.4333 100.542 67.0867 100.849 67.66C101.156 68.22 101.582 68.66 102.129 68.98C102.676 69.2867 103.282 69.44 103.949 69.44ZM116.798 71.12C115.745 71.12 114.798 70.8867 113.958 70.42C113.118 69.9533 112.458 69.3133 111.978 68.5C111.512 67.6733 111.278 66.74 111.278 65.7C111.278 64.66 111.512 63.7333 111.978 62.92C112.458 62.0933 113.118 61.4533 113.958 61C114.798 60.5333 115.745 60.3 116.798 60.3C117.852 60.3 118.792 60.5333 119.618 61C120.458 61.4533 121.112 62.0933 121.578 62.92C122.058 63.7333 122.298 64.66 122.298 65.7C122.298 66.74 122.058 67.6733 121.578 68.5C121.112 69.3133 120.458 69.9533 119.618 70.42C118.792 70.8867 117.852 71.12 116.798 71.12ZM116.798 69.44C117.478 69.44 118.085 69.2867 118.618 68.98C119.165 68.66 119.592 68.22 119.898 67.66C120.205 67.0867 120.358 66.4333 120.358 65.7C120.358 64.9667 120.205 64.32 119.898 63.76C119.592 63.1867 119.165 62.7467 118.618 62.44C118.085 62.1333 117.478 61.98 116.798 61.98C116.118 61.98 115.505 62.1333 114.958 62.44C114.425 62.7467 113.998 63.1867 113.678 63.76C113.372 64.32 113.218 64.9667 113.218 65.7C113.218 66.4333 113.372 67.0867 113.678 67.66C113.998 68.22 114.425 68.66 114.958 68.98C115.505 69.2867 116.118 69.44 116.798 69.44ZM125.071 60.4H126.991V64.9H133.031V60.4H134.951V71H133.031V66.56H126.991V71H125.071V60.4ZM148.064 60.3C149.091 60.3 150.011 60.5333 150.824 61C151.638 61.4533 152.278 62.0933 152.744 62.92C153.211 63.7333 153.444 64.66 153.444 65.7C153.444 66.74 153.211 67.6733 152.744 68.5C152.278 69.3133 151.638 69.9533 150.824 70.42C150.011 70.8867 149.091 71.12 148.064 71.12C147.131 71.12 146.284 70.9267 145.524 70.54C144.764 70.1533 144.138 69.6133 143.644 68.92C143.164 68.2133 142.864 67.4133 142.744 66.52H140.604V71H138.684V60.4H140.604V64.74H142.764C142.898 63.86 143.204 63.0867 143.684 62.42C144.178 61.74 144.798 61.22 145.544 60.86C146.304 60.4867 147.144 60.3 148.064 60.3ZM148.064 69.44C148.718 69.44 149.304 69.2867 149.824 68.98C150.358 68.6733 150.778 68.24 151.084 67.68C151.391 67.1067 151.544 66.4467 151.544 65.7C151.544 64.9667 151.391 64.32 151.084 63.76C150.778 63.1867 150.358 62.7467 149.824 62.44C149.304 62.1333 148.718 61.98 148.064 61.98C147.411 61.98 146.818 62.1333 146.284 62.44C145.751 62.7467 145.331 63.1867 145.024 63.76C144.731 64.32 144.584 64.9667 144.584 65.7C144.584 66.4467 144.731 67.1067 145.024 67.68C145.331 68.24 145.751 68.6733 146.284 68.98C146.818 69.2867 147.411 69.44 148.064 69.44ZM163.424 65.5C164.797 65.8467 165.484 66.7067 165.484 68.08C165.484 69.0133 165.13 69.7333 164.424 70.24C163.73 70.7467 162.69 71 161.304 71H156.204V60.4H161.124C162.377 60.4 163.357 60.64 164.064 61.12C164.77 61.5867 165.124 62.2533 165.124 63.12C165.124 63.68 164.97 64.1667 164.664 64.58C164.37 64.98 163.957 65.2867 163.424 65.5ZM158.084 64.96H160.964C161.697 64.96 162.25 64.8267 162.624 64.56C163.01 64.2933 163.204 63.9067 163.204 63.4C163.204 62.3867 162.457 61.88 160.964 61.88H158.084V64.96ZM161.164 69.52C161.964 69.52 162.564 69.3933 162.964 69.14C163.364 68.8867 163.564 68.4933 163.564 67.96C163.564 67.4133 163.377 67.0067 163.004 66.74C162.644 66.4733 162.07 66.34 161.284 66.34H158.084V69.52H161.164ZM172.269 60.3C173.736 60.3 174.856 60.66 175.629 61.38C176.416 62.1 176.809 63.1733 176.809 64.6V71H174.989V69.6C174.669 70.0933 174.209 70.4733 173.609 70.74C173.022 70.9933 172.322 71.12 171.509 71.12C170.322 71.12 169.369 70.8333 168.649 70.26C167.942 69.6867 167.589 68.9333 167.589 68C167.589 67.0667 167.929 66.32 168.609 65.76C169.289 65.1867 170.369 64.9 171.849 64.9H174.889V64.52C174.889 63.6933 174.649 63.06 174.169 62.62C173.689 62.18 172.982 61.96 172.049 61.96C171.422 61.96 170.809 62.0667 170.209 62.28C169.609 62.48 169.102 62.7533 168.689 63.1L167.889 61.66C168.436 61.22 169.089 60.8867 169.849 60.66C170.609 60.42 171.416 60.3 172.269 60.3ZM171.829 69.64C172.562 69.64 173.196 69.48 173.729 69.16C174.262 68.8267 174.649 68.36 174.889 67.76V66.28H171.929C170.302 66.28 169.489 66.8267 169.489 67.92C169.489 68.4533 169.696 68.8733 170.109 69.18C170.522 69.4867 171.096 69.64 171.829 69.64ZM180.266 60.4H182.186V64.9H188.226V60.4H190.146V71H188.226V66.56H182.186V71H180.266V60.4ZM193.88 60.4H195.8V64.9H201.84V60.4H203.76V71H201.84V66.56H195.8V71H193.88V60.4ZM215.993 60.4V71H214.273V67.64H211.193H210.973L208.653 71H206.593L209.173 67.38C208.373 67.14 207.759 66.7467 207.333 66.2C206.906 65.64 206.693 64.9467 206.693 64.12C206.693 62.9067 207.106 61.9867 207.933 61.36C208.759 60.72 209.899 60.4 211.353 60.4H215.993ZM208.653 64.18C208.653 64.8867 208.873 65.4133 209.313 65.76C209.766 66.0933 210.439 66.26 211.333 66.26H214.273V62.08H211.413C209.573 62.08 208.653 62.78 208.653 64.18ZM229.73 71.12C228.65 71.12 227.683 70.8867 226.83 70.42C225.99 69.9533 225.33 69.3133 224.85 68.5C224.37 67.6733 224.13 66.74 224.13 65.7C224.13 64.66 224.37 63.7333 224.85 62.92C225.33 62.0933 225.99 61.4533 226.83 61C227.683 60.5333 228.65 60.3 229.73 60.3C230.69 60.3 231.543 60.4933 232.29 60.88C233.05 61.2667 233.637 61.8267 234.05 62.56L232.59 63.5C232.257 62.9933 231.843 62.6133 231.35 62.36C230.857 62.1067 230.31 61.98 229.71 61.98C229.017 61.98 228.39 62.1333 227.83 62.44C227.283 62.7467 226.85 63.1867 226.53 63.76C226.223 64.32 226.07 64.9667 226.07 65.7C226.07 66.4467 226.223 67.1067 226.53 67.68C226.85 68.24 227.283 68.6733 227.83 68.98C228.39 69.2867 229.017 69.44 229.71 69.44C230.31 69.44 230.857 69.3133 231.35 69.06C231.843 68.8067 232.257 68.4267 232.59 67.92L234.05 68.84C233.637 69.5733 233.05 70.14 232.29 70.54C231.543 70.9267 230.69 71.12 229.73 71.12ZM240.316 60.3C241.782 60.3 242.902 60.66 243.676 61.38C244.462 62.1 244.856 63.1733 244.856 64.6V71H243.036V69.6C242.716 70.0933 242.256 70.4733 241.656 70.74C241.069 70.9933 240.369 71.12 239.556 71.12C238.369 71.12 237.416 70.8333 236.696 70.26C235.989 69.6867 235.636 68.9333 235.636 68C235.636 67.0667 235.976 66.32 236.656 65.76C237.336 65.1867 238.416 64.9 239.896 64.9H242.936V64.52C242.936 63.6933 242.696 63.06 242.216 62.62C241.736 62.18 241.029 61.96 240.096 61.96C239.469 61.96 238.856 62.0667 238.256 62.28C237.656 62.48 237.149 62.7533 236.736 63.1L235.936 61.66C236.482 61.22 237.136 60.8867 237.896 60.66C238.656 60.42 239.462 60.3 240.316 60.3ZM239.876 69.64C240.609 69.64 241.242 69.48 241.776 69.16C242.309 68.8267 242.696 68.36 242.936 67.76V66.28H239.976C238.349 66.28 237.536 66.8267 237.536 67.92C237.536 68.4533 237.742 68.8733 238.156 69.18C238.569 69.4867 239.142 69.64 239.876 69.64ZM248.313 60.4H250.233V64.9H256.273V60.4H258.193V71H256.273V66.56H250.233V71H248.313V60.4ZM265.706 60.3C267.173 60.3 268.293 60.66 269.066 61.38C269.853 62.1 270.246 63.1733 270.246 64.6V71H268.426V69.6C268.106 70.0933 267.646 70.4733 267.046 70.74C266.46 70.9933 265.76 71.12 264.946 71.12C263.76 71.12 262.806 70.8333 262.086 70.26C261.38 69.6867 261.026 68.9333 261.026 68C261.026 67.0667 261.366 66.32 262.046 65.76C262.726 65.1867 263.806 64.9 265.286 64.9H268.326V64.52C268.326 63.6933 268.086 63.06 267.606 62.62C267.126 62.18 266.42 61.96 265.486 61.96C264.86 61.96 264.246 62.0667 263.646 62.28C263.046 62.48 262.54 62.7533 262.126 63.1L261.326 61.66C261.873 61.22 262.526 60.8867 263.286 60.66C264.046 60.42 264.853 60.3 265.706 60.3ZM265.266 69.64C266 69.64 266.633 69.48 267.166 69.16C267.7 68.8267 268.086 68.36 268.326 67.76V66.28H265.366C263.74 66.28 262.926 66.8267 262.926 67.92C262.926 68.4533 263.133 68.8733 263.546 69.18C263.96 69.4867 264.533 69.64 265.266 69.64ZM281.604 62.08H277.724V71H275.804V62.08H271.924V60.4H281.604V62.08ZM287.638 71.12C286.585 71.12 285.638 70.8867 284.798 70.42C283.958 69.9533 283.298 69.3133 282.818 68.5C282.352 67.6733 282.118 66.74 282.118 65.7C282.118 64.66 282.352 63.7333 282.818 62.92C283.298 62.0933 283.958 61.4533 284.798 61C285.638 60.5333 286.585 60.3 287.638 60.3C288.692 60.3 289.632 60.5333 290.458 61C291.298 61.4533 291.952 62.0933 292.418 62.92C292.898 63.7333 293.138 64.66 293.138 65.7C293.138 66.74 292.898 67.6733 292.418 68.5C291.952 69.3133 291.298 69.9533 290.458 70.42C289.632 70.8867 288.692 71.12 287.638 71.12ZM287.638 69.44C288.318 69.44 288.925 69.2867 289.458 68.98C290.005 68.66 290.432 68.22 290.738 67.66C291.045 67.0867 291.198 66.4333 291.198 65.7C291.198 64.9667 291.045 64.32 290.738 63.76C290.432 63.1867 290.005 62.7467 289.458 62.44C288.925 62.1333 288.318 61.98 287.638 61.98C286.958 61.98 286.345 62.1333 285.798 62.44C285.265 62.7467 284.838 63.1867 284.518 63.76C284.212 64.32 284.058 64.9667 284.058 65.7C284.058 66.4333 284.212 67.0867 284.518 67.66C284.838 68.22 285.265 68.66 285.798 68.98C286.345 69.2867 286.958 69.44 287.638 69.44ZM301.531 60.3C302.557 60.3 303.477 60.5267 304.291 60.98C305.104 61.4333 305.737 62.0667 306.191 62.88C306.657 63.6933 306.891 64.6333 306.891 65.7C306.891 66.7667 306.657 67.7133 306.191 68.54C305.737 69.3533 305.104 69.9867 304.291 70.44C303.477 70.8933 302.557 71.12 301.531 71.12C300.771 71.12 300.071 70.9733 299.431 70.68C298.804 70.3867 298.271 69.96 297.831 69.4V74.88H295.911V60.4H297.751V62.08C298.177 61.4933 298.717 61.0533 299.371 60.76C300.024 60.4533 300.744 60.3 301.531 60.3ZM301.371 69.44C302.051 69.44 302.657 69.2867 303.191 68.98C303.737 68.66 304.164 68.22 304.471 67.66C304.791 67.0867 304.951 66.4333 304.951 65.7C304.951 64.9667 304.791 64.32 304.471 63.76C304.164 63.1867 303.737 62.7467 303.191 62.44C302.657 62.1333 302.051 61.98 301.371 61.98C300.704 61.98 300.097 62.14 299.551 62.46C299.017 62.7667 298.591 63.2 298.271 63.76C297.964 64.32 297.811 64.9667 297.811 65.7C297.811 66.4333 297.964 67.0867 298.271 67.66C298.577 68.22 299.004 68.66 299.551 68.98C300.097 69.2867 300.704 69.44 301.371 69.44ZM309.68 60.4H311.6V71H309.68V60.4ZM310.64 58.36C310.267 58.36 309.954 58.24 309.7 58C309.46 57.76 309.34 57.4667 309.34 57.12C309.34 56.7733 309.46 56.48 309.7 56.24C309.954 55.9867 310.267 55.86 310.64 55.86C311.014 55.86 311.32 55.98 311.56 56.22C311.814 56.4467 311.94 56.7333 311.94 57.08C311.94 57.44 311.814 57.7467 311.56 58C311.32 58.24 311.014 58.36 310.64 58.36ZM315.304 60.4H317.224V71H315.304V60.4ZM314.844 58.5C314.551 58.5 314.311 58.4067 314.124 58.22C313.938 58.02 313.844 57.78 313.844 57.5C313.844 57.2067 313.938 56.9667 314.124 56.78C314.311 56.58 314.551 56.48 314.844 56.48C315.124 56.48 315.358 56.58 315.544 56.78C315.731 56.9667 315.824 57.2067 315.824 57.5C315.824 57.7933 315.731 58.0333 315.544 58.22C315.358 58.4067 315.124 58.5 314.844 58.5ZM317.684 58.5C317.404 58.5 317.171 58.4067 316.984 58.22C316.798 58.02 316.704 57.78 316.704 57.5C316.704 57.2067 316.798 56.9667 316.984 56.78C317.171 56.58 317.404 56.48 317.684 56.48C317.978 56.48 318.218 56.58 318.404 56.78C318.591 56.9667 318.684 57.2067 318.684 57.5C318.684 57.7933 318.591 58.0333 318.404 58.22C318.218 58.4067 317.978 58.5 317.684 58.5ZM328.15 65.5C329.524 65.8467 330.21 66.7067 330.21 68.08C330.21 69.0133 329.857 69.7333 329.15 70.24C328.457 70.7467 327.417 71 326.03 71H320.93V60.4H325.85C327.104 60.4 328.084 60.64 328.79 61.12C329.497 61.5867 329.85 62.2533 329.85 63.12C329.85 63.68 329.697 64.1667 329.39 64.58C329.097 64.98 328.684 65.2867 328.15 65.5ZM322.81 64.96H325.69C326.424 64.96 326.977 64.8267 327.35 64.56C327.737 64.2933 327.93 63.9067 327.93 63.4C327.93 62.3867 327.184 61.88 325.69 61.88H322.81V64.96ZM325.89 69.52C326.69 69.52 327.29 69.3933 327.69 69.14C328.09 68.8867 328.29 68.4933 328.29 67.96C328.29 67.4133 328.104 67.0067 327.73 66.74C327.37 66.4733 326.797 66.34 326.01 66.34H322.81V69.52H325.89ZM346.487 62.08H342.607V71H340.687V62.08H336.807V60.4H346.487V62.08ZM352.23 60.3C353.697 60.3 354.817 60.66 355.59 61.38C356.377 62.1 356.77 63.1733 356.77 64.6V71H354.95V69.6C354.63 70.0933 354.17 70.4733 353.57 70.74C352.983 70.9933 352.283 71.12 351.47 71.12C350.283 71.12 349.33 70.8333 348.61 70.26C347.903 69.6867 347.55 68.9333 347.55 68C347.55 67.0667 347.89 66.32 348.57 65.76C349.25 65.1867 350.33 64.9 351.81 64.9H354.85V64.52C354.85 63.6933 354.61 63.06 354.13 62.62C353.65 62.18 352.943 61.96 352.01 61.96C351.383 61.96 350.77 62.0667 350.17 62.28C349.57 62.48 349.063 62.7533 348.65 63.1L347.85 61.66C348.397 61.22 349.05 60.8867 349.81 60.66C350.57 60.42 351.377 60.3 352.23 60.3ZM351.79 69.64C352.523 69.64 353.157 69.48 353.69 69.16C354.223 68.8267 354.61 68.36 354.85 67.76V66.28H351.89C350.263 66.28 349.45 66.8267 349.45 67.92C349.45 68.4533 349.657 68.8733 350.07 69.18C350.483 69.4867 351.057 69.64 351.79 69.64ZM373.398 62.08H367.518V71H365.598V60.4H373.398V62.08ZM379.435 71.12C378.382 71.12 377.435 70.8867 376.595 70.42C375.755 69.9533 375.095 69.3133 374.615 68.5C374.148 67.6733 373.915 66.74 373.915 65.7C373.915 64.66 374.148 63.7333 374.615 62.92C375.095 62.0933 375.755 61.4533 376.595 61C377.435 60.5333 378.382 60.3 379.435 60.3C380.488 60.3 381.428 60.5333 382.255 61C383.095 61.4533 383.748 62.0933 384.215 62.92C384.695 63.7333 384.935 64.66 384.935 65.7C384.935 66.74 384.695 67.6733 384.215 68.5C383.748 69.3133 383.095 69.9533 382.255 70.42C381.428 70.8867 380.488 71.12 379.435 71.12ZM379.435 69.44C380.115 69.44 380.722 69.2867 381.255 68.98C381.802 68.66 382.228 68.22 382.535 67.66C382.842 67.0867 382.995 66.4333 382.995 65.7C382.995 64.9667 382.842 64.32 382.535 63.76C382.228 63.1867 381.802 62.7467 381.255 62.44C380.722 62.1333 380.115 61.98 379.435 61.98C378.755 61.98 378.142 62.1333 377.595 62.44C377.062 62.7467 376.635 63.1867 376.315 63.76C376.008 64.32 375.855 64.9667 375.855 65.7C375.855 66.4333 376.008 67.0867 376.315 67.66C376.635 68.22 377.062 68.66 377.595 68.98C378.142 69.2867 378.755 69.44 379.435 69.44ZM395.217 62.08H391.337V71H389.417V62.08H385.537V60.4H395.217V62.08ZM406.292 65.76C406.292 65.9067 406.278 66.1 406.252 66.34H397.652C397.772 67.2733 398.178 68.0267 398.872 68.6C399.578 69.16 400.452 69.44 401.492 69.44C402.758 69.44 403.778 69.0133 404.552 68.16L405.612 69.4C405.132 69.96 404.532 70.3867 403.812 70.68C403.105 70.9733 402.312 71.12 401.432 71.12C400.312 71.12 399.318 70.8933 398.452 70.44C397.585 69.9733 396.912 69.3267 396.432 68.5C395.965 67.6733 395.732 66.74 395.732 65.7C395.732 64.6733 395.958 63.7467 396.412 62.92C396.878 62.0933 397.512 61.4533 398.312 61C399.125 60.5333 400.038 60.3 401.052 60.3C402.065 60.3 402.965 60.5333 403.752 61C404.552 61.4533 405.172 62.0933 405.612 62.92C406.065 63.7467 406.292 64.6933 406.292 65.76ZM401.052 61.92C400.132 61.92 399.358 62.2 398.732 62.76C398.118 63.32 397.758 64.0533 397.652 64.96H404.452C404.345 64.0667 403.978 63.34 403.352 62.78C402.738 62.2067 401.972 61.92 401.052 61.92ZM418.194 60.4V71H416.274V62.08H411.714L411.594 64.44C411.528 65.8667 411.401 67.06 411.214 68.02C411.028 68.9667 410.721 69.7267 410.294 70.3C409.868 70.8733 409.274 71.16 408.514 71.16C408.168 71.16 407.774 71.1 407.334 70.98L407.454 69.36C407.628 69.4 407.788 69.42 407.934 69.42C408.468 69.42 408.868 69.1867 409.134 68.72C409.401 68.2533 409.574 67.7 409.654 67.06C409.734 66.42 409.808 65.5067 409.874 64.32L410.054 60.4H418.194ZM431.487 65.76C431.487 65.9067 431.474 66.1 431.447 66.34H422.847C422.967 67.2733 423.374 68.0267 424.067 68.6C424.774 69.16 425.647 69.44 426.687 69.44C427.954 69.44 428.974 69.0133 429.747 68.16L430.807 69.4C430.327 69.96 429.727 70.3867 429.007 70.68C428.3 70.9733 427.507 71.12 426.627 71.12C425.507 71.12 424.514 70.8933 423.647 70.44C422.78 69.9733 422.107 69.3267 421.627 68.5C421.16 67.6733 420.927 66.74 420.927 65.7C420.927 64.6733 421.154 63.7467 421.607 62.92C422.074 62.0933 422.707 61.4533 423.507 61C424.32 60.5333 425.234 60.3 426.247 60.3C427.26 60.3 428.16 60.5333 428.947 61C429.747 61.4533 430.367 62.0933 430.807 62.92C431.26 63.7467 431.487 64.6933 431.487 65.76ZM426.247 61.92C425.327 61.92 424.554 62.2 423.927 62.76C423.314 63.32 422.954 64.0533 422.847 64.96H429.647C429.54 64.0667 429.174 63.34 428.547 62.78C427.934 62.2067 427.167 61.92 426.247 61.92ZM434.465 60.4H436.385V68.12L442.885 60.4H444.625V71H442.705V63.28L436.225 71H434.465V60.4ZM439.425 59.02C438.439 59.02 437.672 58.7867 437.125 58.32C436.579 57.84 436.299 57.1533 436.285 56.26H437.585C437.599 56.7533 437.765 57.1533 438.085 57.46C438.419 57.7533 438.859 57.9 439.405 57.9C439.952 57.9 440.392 57.7533 440.725 57.46C441.059 57.1533 441.232 56.7533 441.245 56.26H442.585C442.572 57.1533 442.285 57.84 441.725 58.32C441.165 58.7867 440.399 59.02 439.425 59.02Z" fill="#BD7F5C"/>
<path d="M28.1112 53.8891C31.543 53.1756 33.5476 49.8798 33.5476 49.8798L34.0748 70.0285C34.0748 70.0285 32.1241 69.8548 30.5576 68.9752C29.4422 68.3489 28.3047 67.0399 27.3297 66.291C24.9852 64.4901 21.3157 63.3689 20.1604 62.8932C19.0051 62.4175 16.253 60.0391 16.253 60.0391C16.253 60.0391 12.6174 56.7772 11.8359 53.1756C11.0544 49.574 11.0884 46.9237 11.3602 45.9384C11.632 44.953 13.3989 39.5166 14.9618 34.6578C16.5248 29.799 15.6754 28.6778 15.6754 28.6778C15.6754 28.6778 14.8939 24.6344 10.9525 22.324C7.01109 20.0135 2.69594 18.9602 2.69594 18.9602C2.69594 18.9602 1.77853 17.3293 2.05035 15.7323C2.32217 14.1354 3.57934 13.6937 3.57934 13.6937C3.57934 13.6937 11.632 14.713 16.4229 18.9602C21.2137 23.2074 21.1797 29.2554 21.2137 29.6291C21.2477 30.0029 21.6868 30.8184 24.5095 30.9203C27.3323 31.0222 27.9752 29.6291 27.9752 29.6291L24.7134 36.6965C24.7134 36.6965 24.1018 36.0509 23.2863 35.881C22.4709 35.7111 21.2817 35.949 21.2817 35.949C21.2817 35.949 18.4955 36.6965 18.3936 43.6959C18.2916 50.6953 21.3157 51.8505 21.3157 51.8505C21.3157 51.8505 24.6795 54.6027 28.1112 53.8891Z" fill="url(#paint0_linear)"/>
<path d="M66.1507 57.5247C66.5244 59.2236 66.6264 60.6166 66.4225 62.2476C66.2186 63.8785 65.2333 65.9511 64.112 67.582C62.9908 69.213 60.2726 70.0284 60.2726 70.0284H47.1572V7.37378H56.1273C56.1273 7.37378 56.7712 7.51404 57.1806 8.32515C57.4783 8.91486 57.5883 9.41243 57.5883 10.5337C57.5883 11.655 55.6856 13.3878 55.6856 13.3878C55.6856 13.3878 54.2925 14.7469 53.8168 15.6983C53.3411 16.6497 54.0547 17.4651 54.0547 17.4651C54.0547 17.4651 54.7778 18.0838 56.2632 19.198C57.7373 20.3037 59.6983 21.5623 60.5784 22.3239C62.3452 23.8529 65.2673 26.8769 66.0488 28.27C66.8302 29.6631 68.6731 32.7923 69.4125 35.0655C69.9014 36.5686 69.9895 38.0711 69.8542 38.4633C69.5145 39.4486 68.8009 40.1961 68.4272 40.434C68.0534 40.6718 65.7769 41.6911 64.112 42.7444C62.4471 43.7977 61.2239 46.1422 61.2239 46.1422C61.2239 46.1422 60.2726 48.6226 61.2239 50.3894C62.1753 52.1562 63.6703 53.0736 64.3159 53.7532C64.9615 54.4327 65.7769 55.8258 66.1507 57.5247Z" fill="#A97456"/>
<path d="M28.1872 57.5247C27.8134 59.2236 27.7115 60.6166 27.9154 62.2476C28.1192 63.8785 29.1046 65.9511 30.2259 67.582C31.3471 69.213 34.0653 70.0284 34.0653 70.0284H47.1807V7.37378H38.2106C38.2106 7.37378 37.5667 7.51404 37.1573 8.32515C36.8596 8.91486 36.7495 9.41243 36.7495 10.5337C36.7495 11.655 38.6523 13.3878 38.6523 13.3878C38.6523 13.3878 40.0454 14.7469 40.5211 15.6983C40.9967 16.6497 40.2832 17.4651 40.2832 17.4651C40.2832 17.4651 39.56 18.0838 38.0747 19.198C36.6006 20.3037 34.6396 21.5623 33.7595 22.3239C31.9927 23.8529 29.0706 26.8769 28.2891 28.27C27.5076 29.6631 25.6647 32.7923 24.9254 35.0655C24.4364 36.5686 24.3484 38.0711 24.4836 38.4633C24.8234 39.4486 25.5369 40.1961 25.9107 40.434C26.2845 40.6718 28.561 41.6911 30.2259 42.7444C31.8908 43.7977 33.1139 46.1422 33.1139 46.1422C33.1139 46.1422 34.0653 48.6226 33.1139 50.3894C32.1626 52.1562 30.6676 53.0736 30.022 53.7532C29.3764 54.4327 28.561 55.8258 28.1872 57.5247Z" fill="#A97456"/>
<rect x="36.3174" y="7.00006" width="21.7456" height="6.25187" rx="3.12594" fill="url(#paint1_linear)"/>
<rect x="28.7734" y="67.684" width="36.8317" height="4.41708" rx="2.20854" fill="url(#paint2_linear)"/>
<rect x="41.5498" y="76.9938" width="0.0679552" height="0.0679552" fill="#C4C4C4"/>
<path d="M46.6593 33.572L40.4956 44.0817C39.2004 46.3036 39.1003 49.1288 40.4956 51.5079C42.5931 55.0843 47.2588 56.3211 50.9168 54.2704C54.5748 52.2197 55.8399 47.6581 53.7424 44.0817L47.5786 33.572C47.375 33.2249 46.8629 33.2249 46.6593 33.572Z" fill="url(#paint3_linear)"/>
<path d="M105.444 13.572L95.826 36H90.408L80.79 13.572H86.25L93.222 30.204L100.404 13.572H105.444ZM115.368 36.294C113.548 36.294 111.77 36.056 110.034 35.58C108.298 35.104 106.912 34.502 105.876 33.774L107.892 29.784C108.9 30.456 110.104 31.002 111.504 31.422C112.932 31.814 114.332 32.01 115.704 32.01C118.84 32.01 120.408 31.184 120.408 29.532C120.408 28.748 120.002 28.202 119.19 27.894C118.406 27.586 117.132 27.292 115.368 27.012C113.52 26.732 112.008 26.41 110.832 26.046C109.684 25.682 108.676 25.052 107.808 24.156C106.968 23.232 106.548 21.958 106.548 20.334C106.548 18.206 107.43 16.512 109.194 15.252C110.986 13.964 113.394 13.32 116.418 13.32C117.958 13.32 119.498 13.502 121.038 13.866C122.578 14.202 123.838 14.664 124.818 15.252L122.802 19.242C120.898 18.122 118.756 17.562 116.376 17.562C114.836 17.562 113.66 17.8 112.848 18.276C112.064 18.724 111.672 19.326 111.672 20.082C111.672 20.922 112.092 21.524 112.932 21.888C113.8 22.224 115.13 22.546 116.922 22.854C118.714 23.134 120.184 23.456 121.332 23.82C122.48 24.184 123.46 24.8 124.272 25.668C125.112 26.536 125.532 27.768 125.532 29.364C125.532 31.464 124.622 33.144 122.802 34.404C120.982 35.664 118.504 36.294 115.368 36.294ZM151.137 24.912C151.137 25.276 151.109 25.794 151.053 26.466H133.455C133.763 28.118 134.561 29.434 135.849 30.414C137.165 31.366 138.789 31.842 140.721 31.842C143.185 31.842 145.215 31.03 146.811 29.406L149.625 32.64C148.617 33.844 147.343 34.754 145.803 35.37C144.263 35.986 142.527 36.294 140.595 36.294C138.131 36.294 135.961 35.804 134.085 34.824C132.209 33.844 130.753 32.486 129.717 30.75C128.709 28.986 128.205 26.998 128.205 24.786C128.205 22.602 128.695 20.642 129.675 18.906C130.683 17.142 132.069 15.77 133.833 14.79C135.597 13.81 137.585 13.32 139.797 13.32C141.981 13.32 143.927 13.81 145.635 14.79C147.371 15.742 148.715 17.1 149.667 18.864C150.647 20.6 151.137 22.616 151.137 24.912ZM139.797 17.52C138.117 17.52 136.689 18.024 135.513 19.032C134.365 20.012 133.665 21.328 133.413 22.98H146.139C145.915 21.356 145.229 20.04 144.081 19.032C142.933 18.024 141.505 17.52 139.797 17.52ZM163.11 36.294C161.29 36.294 159.512 36.056 157.776 35.58C156.04 35.104 154.654 34.502 153.618 33.774L155.634 29.784C156.642 30.456 157.846 31.002 159.246 31.422C160.674 31.814 162.074 32.01 163.446 32.01C166.582 32.01 168.15 31.184 168.15 29.532C168.15 28.748 167.744 28.202 166.932 27.894C166.148 27.586 164.874 27.292 163.11 27.012C161.262 26.732 159.75 26.41 158.574 26.046C157.426 25.682 156.418 25.052 155.55 24.156C154.71 23.232 154.29 21.958 154.29 20.334C154.29 18.206 155.172 16.512 156.936 15.252C158.728 13.964 161.136 13.32 164.16 13.32C165.7 13.32 167.24 13.502 168.78 13.866C170.32 14.202 171.58 14.664 172.56 15.252L170.544 19.242C168.64 18.122 166.498 17.562 164.118 17.562C162.578 17.562 161.402 17.8 160.59 18.276C159.806 18.724 159.414 19.326 159.414 20.082C159.414 20.922 159.834 21.524 160.674 21.888C161.542 22.224 162.872 22.546 164.664 22.854C166.456 23.134 167.926 23.456 169.074 23.82C170.222 24.184 171.202 24.8 172.014 25.668C172.854 26.536 173.274 27.768 173.274 29.364C173.274 31.464 172.364 33.144 170.544 34.404C168.724 35.664 166.246 36.294 163.11 36.294ZM186.364 13.32C189.668 13.32 192.188 14.118 193.924 15.714C195.688 17.282 196.57 19.662 196.57 22.854V36H191.614V33.27C190.97 34.25 190.046 35.006 188.842 35.538C187.666 36.042 186.238 36.294 184.558 36.294C182.878 36.294 181.408 36.014 180.148 35.454C178.888 34.866 177.908 34.068 177.208 33.06C176.536 32.024 176.2 30.862 176.2 29.574C176.2 27.558 176.942 25.948 178.426 24.744C179.938 23.512 182.304 22.896 185.524 22.896H191.32V22.56C191.32 20.992 190.844 19.788 189.892 18.948C188.968 18.108 187.582 17.688 185.734 17.688C184.474 17.688 183.228 17.884 181.996 18.276C180.792 18.668 179.77 19.214 178.93 19.914L176.872 16.092C178.048 15.196 179.462 14.51 181.114 14.034C182.766 13.558 184.516 13.32 186.364 13.32ZM185.65 32.472C186.966 32.472 188.128 32.178 189.136 31.59C190.172 30.974 190.9 30.106 191.32 28.986V26.382H185.902C182.878 26.382 181.366 27.376 181.366 29.364C181.366 30.316 181.744 31.072 182.5 31.632C183.256 32.192 184.306 32.472 185.65 32.472ZM216.033 13.32C218.861 13.32 221.129 14.146 222.837 15.798C224.545 17.45 225.399 19.9 225.399 23.148V36H220.149V23.82C220.149 21.86 219.687 20.39 218.763 19.41C217.839 18.402 216.523 17.898 214.815 17.898C212.883 17.898 211.357 18.486 210.237 19.662C209.117 20.81 208.557 22.476 208.557 24.66V36H203.307V13.572H208.305V16.47C209.173 15.434 210.265 14.65 211.581 14.118C212.897 13.586 214.381 13.32 216.033 13.32ZM240.627 13.32C243.931 13.32 246.451 14.118 248.187 15.714C249.951 17.282 250.833 19.662 250.833 22.854V36H245.877V33.27C245.233 34.25 244.309 35.006 243.105 35.538C241.929 36.042 240.501 36.294 238.821 36.294C237.141 36.294 235.671 36.014 234.411 35.454C233.151 34.866 232.171 34.068 231.471 33.06C230.799 32.024 230.463 30.862 230.463 29.574C230.463 27.558 231.205 25.948 232.689 24.744C234.201 23.512 236.567 22.896 239.787 22.896H245.583V22.56C245.583 20.992 245.107 19.788 244.155 18.948C243.231 18.108 241.845 17.688 239.997 17.688C238.737 17.688 237.491 17.884 236.259 18.276C235.055 18.668 234.033 19.214 233.193 19.914L231.135 16.092C232.311 15.196 233.725 14.51 235.377 14.034C237.029 13.558 238.779 13.32 240.627 13.32ZM239.913 32.472C241.229 32.472 242.391 32.178 243.399 31.59C244.435 30.974 245.163 30.106 245.583 28.986V26.382H240.165C237.141 26.382 235.629 27.376 235.629 29.364C235.629 30.316 236.007 31.072 236.763 31.632C237.519 32.192 238.569 32.472 239.913 32.472ZM271.053 34.782C270.437 35.286 269.681 35.664 268.785 35.916C267.917 36.168 266.993 36.294 266.013 36.294C263.549 36.294 261.645 35.65 260.301 34.362C258.957 33.074 258.285 31.198 258.285 28.734V17.94H254.589V13.74H258.285V8.616H263.535V13.74H269.541V17.94H263.535V28.608C263.535 29.7 263.801 30.54 264.333 31.128C264.865 31.688 265.635 31.968 266.643 31.968C267.819 31.968 268.799 31.66 269.583 31.044L271.053 34.782ZM284.713 36.294C282.445 36.294 280.401 35.804 278.581 34.824C276.761 33.844 275.333 32.486 274.297 30.75C273.289 28.986 272.785 26.998 272.785 24.786C272.785 22.574 273.289 20.6 274.297 18.864C275.333 17.128 276.761 15.77 278.581 14.79C280.401 13.81 282.445 13.32 284.713 13.32C287.009 13.32 289.067 13.81 290.887 14.79C292.707 15.77 294.121 17.128 295.129 18.864C296.165 20.6 296.683 22.574 296.683 24.786C296.683 26.998 296.165 28.986 295.129 30.75C294.121 32.486 292.707 33.844 290.887 34.824C289.067 35.804 287.009 36.294 284.713 36.294ZM284.713 31.8C286.645 31.8 288.241 31.156 289.501 29.868C290.761 28.58 291.391 26.886 291.391 24.786C291.391 22.686 290.761 20.992 289.501 19.704C288.241 18.416 286.645 17.772 284.713 17.772C282.781 17.772 281.185 18.416 279.925 19.704C278.693 20.992 278.077 22.686 278.077 24.786C278.077 26.886 278.693 28.58 279.925 29.868C281.185 31.156 282.781 31.8 284.713 31.8ZM306.702 16.848C308.214 14.496 310.874 13.32 314.682 13.32V18.318C314.234 18.234 313.828 18.192 313.464 18.192C311.42 18.192 309.824 18.794 308.676 19.998C307.528 21.174 306.954 22.882 306.954 25.122V36H301.704V13.572H306.702V16.848ZM319.135 13.572H324.385V36H319.135V13.572ZM321.781 9.876C320.829 9.876 320.031 9.582 319.387 8.994C318.743 8.378 318.421 7.622 318.421 6.726C318.421 5.83 318.743 5.088 319.387 4.5C320.031 3.884 320.829 3.576 321.781 3.576C322.733 3.576 323.531 3.87 324.175 4.458C324.819 5.018 325.141 5.732 325.141 6.6C325.141 7.524 324.819 8.308 324.175 8.952C323.559 9.568 322.761 9.876 321.781 9.876ZM331.276 13.572H336.526V36H331.276V13.572ZM333.922 9.876C332.97 9.876 332.172 9.582 331.528 8.994C330.884 8.378 330.562 7.622 330.562 6.726C330.562 5.83 330.884 5.088 331.528 4.5C332.172 3.884 332.97 3.576 333.922 3.576C334.874 3.576 335.672 3.87 336.316 4.458C336.96 5.018 337.282 5.732 337.282 6.6C337.282 7.524 336.96 8.308 336.316 8.952C335.7 9.568 334.902 9.876 333.922 9.876ZM365.314 36.294C362.99 36.294 360.904 35.804 359.056 34.824C357.208 33.844 355.766 32.486 354.73 30.75C353.694 28.986 353.176 26.998 353.176 24.786C353.176 22.574 353.694 20.6 354.73 18.864C355.766 17.128 357.194 15.77 359.014 14.79C360.862 13.81 362.962 13.32 365.314 13.32C367.526 13.32 369.458 13.768 371.11 14.664C372.79 15.56 374.05 16.848 374.89 18.528L370.858 20.88C370.214 19.844 369.402 19.074 368.422 18.57C367.47 18.038 366.42 17.772 365.272 17.772C363.312 17.772 361.688 18.416 360.4 19.704C359.112 20.964 358.468 22.658 358.468 24.786C358.468 26.914 359.098 28.622 360.358 29.91C361.646 31.17 363.284 31.8 365.272 31.8C366.42 31.8 367.47 31.548 368.422 31.044C369.402 30.512 370.214 29.728 370.858 28.692L374.89 31.044C374.022 32.724 372.748 34.026 371.068 34.95C369.416 35.846 367.498 36.294 365.314 36.294ZM389.18 36.294C386.912 36.294 384.868 35.804 383.048 34.824C381.228 33.844 379.8 32.486 378.764 30.75C377.756 28.986 377.252 26.998 377.252 24.786C377.252 22.574 377.756 20.6 378.764 18.864C379.8 17.128 381.228 15.77 383.048 14.79C384.868 13.81 386.912 13.32 389.18 13.32C391.476 13.32 393.534 13.81 395.354 14.79C397.174 15.77 398.588 17.128 399.596 18.864C400.632 20.6 401.15 22.574 401.15 24.786C401.15 26.998 400.632 28.986 399.596 30.75C398.588 32.486 397.174 33.844 395.354 34.824C393.534 35.804 391.476 36.294 389.18 36.294ZM389.18 31.8C391.112 31.8 392.708 31.156 393.968 29.868C395.228 28.58 395.858 26.886 395.858 24.786C395.858 22.686 395.228 20.992 393.968 19.704C392.708 18.416 391.112 17.772 389.18 17.772C387.248 17.772 385.652 18.416 384.392 19.704C383.16 20.992 382.544 22.686 382.544 24.786C382.544 26.886 383.16 28.58 384.392 29.868C385.652 31.156 387.248 31.8 389.18 31.8ZM434.479 13.32C437.307 13.32 439.547 14.146 441.199 15.798C442.851 17.422 443.677 19.872 443.677 23.148V36H438.427V23.82C438.427 21.86 437.993 20.39 437.125 19.41C436.257 18.402 435.011 17.898 433.387 17.898C431.623 17.898 430.209 18.486 429.145 19.662C428.081 20.81 427.549 22.462 427.549 24.618V36H422.299V23.82C422.299 21.86 421.865 20.39 420.997 19.41C420.129 18.402 418.883 17.898 417.259 17.898C415.467 17.898 414.039 18.472 412.975 19.62C411.939 20.768 411.421 22.434 411.421 24.618V36H406.171V13.572H411.169V16.428C412.009 15.42 413.059 14.65 414.319 14.118C415.579 13.586 416.979 13.32 418.519 13.32C420.199 13.32 421.683 13.642 422.971 14.286C424.287 14.902 425.323 15.826 426.079 17.058C427.003 15.882 428.193 14.972 429.649 14.328C431.105 13.656 432.715 13.32 434.479 13.32Z" fill="#A97456"/>
<path d="M346.711 35.1661L342.868 41.8696C342.06 43.2868 341.998 45.0888 342.868 46.6063C344.176 48.8875 347.085 49.6764 349.366 48.3683C351.648 47.0603 352.437 44.1508 351.129 41.8696L347.285 35.1661C347.158 34.9446 346.838 34.9446 346.711 35.1661Z" fill="#A97456"/>
<defs>
<linearGradient id="paint0_linear" x1="2.29339" y1="16.398" x2="48.0849" y2="61.3336" gradientUnits="userSpaceOnUse">
<stop stop-color="#CF9D80"/>
<stop offset="1" stop-color="#CF9D80" stop-opacity="0.8"/>
</linearGradient>
<linearGradient id="paint1_linear" x1="36.5163" y1="7.30018" x2="38.1661" y2="17.1904" gradientUnits="userSpaceOnUse">
<stop stop-color="#CF9D80"/>
<stop offset="1" stop-color="#CF9D80" stop-opacity="0.8"/>
</linearGradient>
<linearGradient id="paint2_linear" x1="29.1103" y1="67.8961" x2="29.6077" y2="75.0435" gradientUnits="userSpaceOnUse">
<stop stop-color="#CF9D80"/>
<stop offset="1" stop-color="#CF9D80"/>
</linearGradient>
<linearGradient id="paint3_linear" x1="39.626" y1="34.3653" x2="57.1805" y2="55.4128" gradientUnits="userSpaceOnUse">
<stop stop-color="#CF9D80"/>
<stop offset="1" stop-color="#CF9D80" stop-opacity="0.8"/>
</linearGradient>
</defs>
</svg>
