<svg width="28" height="28" viewBox="0 0 28 28" fill="none" xmlns="http://www.w3.org/2000/svg">
<path d="M11.9004 14.5469V19H10.4004V7.625H14.5957C15.8405 7.625 16.8145 7.94271 17.5176 8.57812C18.2259 9.21354 18.5801 10.0547 18.5801 11.1016C18.5801 12.2057 18.2337 13.0573 17.541 13.6562C16.8535 14.25 15.8665 14.5469 14.5801 14.5469H11.9004ZM11.9004 13.3203H14.5957C15.3978 13.3203 16.0124 13.1328 16.4395 12.7578C16.8665 12.3776 17.0801 11.8307 17.0801 11.1172C17.0801 10.4401 16.8665 9.89844 16.4395 9.49219C16.0124 9.08594 15.4264 8.875 14.6816 8.85938H11.9004V13.3203Z" fill="#777777"/>
<rect x="10.4023" y="18.2148" width="1.49609" height="1.75754" fill="#777777"/>
<rect x="1.54688" y="1.45703" width="24.9197" height="25.0844" rx="1.5" stroke="#777777"/>
</svg>
