<svg width="22" height="24" viewBox="0 0 22 24" fill="none" xmlns="http://www.w3.org/2000/svg">
<path d="M21.4657 14.9735C21.8104 14.6289 22.0003 14.1706 22.0003 13.6833C22.0003 13.4229 21.7884 13.2111 21.528 13.2111H14.6345L13.6527 12.3882L12.4568 6.71752C12.2431 5.70509 11.5474 4.85728 10.5958 4.44967L9.81941 4.11769C9.7588 4.09187 9.69746 4.06788 9.63557 4.04499C9.889 3.76043 10.0435 3.3856 10.0435 2.97543V1.60996C10.0435 0.722044 9.32098 -0.000518799 8.43307 -0.000518799H8.14155C7.25345 -0.000518799 6.53089 0.722044 6.53089 1.60996V2.97543C6.53089 3.37498 6.67756 3.74084 6.91946 4.02265C6.84621 4.04829 6.7737 4.07594 6.70192 4.10597L5.91124 4.4374C4.92023 4.8527 4.21085 5.73146 4.01382 6.7882L3.48811 9.61034C3.4524 9.80133 3.57838 9.98481 3.76919 10.0205C3.79098 10.0245 3.81277 10.0264 3.83401 10.0264C4.00009 10.0264 4.14786 9.90826 4.17936 9.73925L4.70507 6.91712C4.85852 6.09402 5.41116 5.40937 6.18298 5.08599L6.97366 4.75437C7.22214 4.65036 7.48235 4.57767 7.74804 4.53702C7.87402 4.56888 8.00568 4.58591 8.14155 4.58591H8.43307C8.55703 4.58591 8.67752 4.57126 8.79362 4.54471C9.05107 4.5881 9.30285 4.66153 9.54291 4.76426L10.3191 5.09606C11.0604 5.41358 11.6024 6.07406 11.7688 6.86273L12.9649 12.5343C12.9962 12.6859 13.079 12.8245 13.1984 12.9249L13.5399 13.2111H13.2248C12.7992 13.2111 12.4279 12.9232 12.3216 12.5108L11.092 7.73801C11.0397 7.53732 10.8524 7.4106 10.6462 7.43716C10.4403 7.46371 10.2909 7.63345 10.2909 7.8411V11.4515H9.27447C9.22173 11.4362 9.1646 11.4327 9.1071 11.4442C9.09703 11.4462 9.08751 11.4488 9.07781 11.4515H6.18463L6.0374 7.69242C6.03063 7.49575 5.87755 7.33571 5.68125 7.32015C5.48477 7.30458 5.30825 7.43899 5.27089 7.63162L4.33226 12.4202C4.24235 12.8785 3.83822 13.2111 3.37128 13.2111H2.92064L3.48335 12.7207C3.59157 12.6273 3.66554 12.4978 3.69155 12.3565L3.90762 11.197C3.94314 11.006 3.81734 10.8225 3.62636 10.787C3.43555 10.7515 3.25189 10.8773 3.21637 11.0683L3.00451 12.2052L1.85071 13.2111H0.653888C0.529555 13.2111 0.411996 13.2592 0.322637 13.3466C0.320806 13.3484 0.318975 13.3502 0.317144 13.3521C0.229799 13.4414 0.181641 13.559 0.181641 13.6833C0.181641 14.5641 0.812281 15.3033 1.64673 15.4718V23.285H1.21604C1.02194 23.285 0.864468 23.4425 0.864468 23.6366C0.864468 23.8309 1.02194 23.9882 1.21604 23.9882H1.90766C1.93659 23.996 1.96699 24.0006 1.99849 24.0006H20.1836C20.2151 24.0006 20.2455 23.996 20.2744 23.9882H20.966C21.1603 23.9882 21.3176 23.8309 21.3176 23.6366C21.3176 23.4425 21.1603 23.285 20.966 23.285H20.5352V15.4725C20.8855 15.4026 21.2077 15.2314 21.4657 14.9735ZM7.23404 2.97543V1.60996C7.23404 1.10969 7.6411 0.702634 8.14155 0.702634H8.43307C8.93333 0.702634 9.34039 1.10969 9.34039 1.60996V2.97543C9.34039 3.47569 8.93333 3.88275 8.43307 3.88275H8.14155C7.6411 3.88275 7.23404 3.47569 7.23404 2.97543ZM11.6408 12.6863C11.6903 12.8785 11.773 13.0551 11.8813 13.2111H11.3986L10.9941 11.7553V10.1762L11.6408 12.6863ZM10.3753 12.1549L11.1781 15.0442C11.1926 15.096 11.2034 15.1495 11.2113 15.2072C11.2188 15.2586 11.2226 15.3136 11.2226 15.3702V16.6342C10.6515 16.8482 10.0547 17.0039 9.44843 17.0965C9.40576 17.1031 9.3631 17.1092 9.32025 17.1152C9.03349 16.7616 8.59402 16.0911 8.66214 15.3667C8.70151 14.9484 8.91319 14.4301 8.9152 14.4251C9.01079 14.1933 9.09502 14.0561 9.17632 13.9237C9.23968 13.8207 9.30523 13.7139 9.36914 13.5756C9.56031 13.162 9.63172 12.6854 9.58393 12.1549H10.3753ZM6.44739 23.285C6.67976 23.1177 6.87551 22.9005 7.01577 22.648L7.50542 21.7657L7.5468 21.8723L6.98776 23.285H6.44739ZM6.83175 20.0335L7.17398 20.9137L6.40088 22.3066C6.23993 22.5965 5.96452 22.8144 5.64554 22.9041L5.53824 22.9342L6.83175 20.0335ZM7.7669 23.2272L8.25142 22.0029C8.28401 21.9205 8.28438 21.8287 8.25233 21.746L7.88904 20.8123C7.88886 20.8115 7.88867 20.811 7.88831 20.8104L7.18534 19.0026C7.18405 18.9993 7.18277 18.996 7.18149 18.9925L6.71785 17.7997C7.1077 17.8568 7.50121 17.8903 7.8949 17.8991L8.24592 19.1919C8.24611 19.1926 8.24629 19.1932 8.24647 19.1937L8.98186 21.9022C9.00273 22.0014 8.97545 22.106 8.90861 22.1829L8.30855 22.8706C8.16224 23.0382 7.97437 23.1605 7.7669 23.2272ZM8.62057 17.8878C8.70114 17.8836 8.78153 17.8784 8.8621 17.8722L8.69693 18.1694L8.62057 17.8878ZM8.87766 12.1549C8.92564 12.5872 8.87657 12.9651 8.73081 13.2807C8.6843 13.3812 8.63467 13.4619 8.57718 13.5555C8.4858 13.7044 8.38216 13.873 8.26497 14.1574C8.23915 14.2204 8.01044 14.788 7.9621 15.3008C7.92658 15.6798 7.96576 16.376 8.50173 17.1899C8.38839 17.1949 8.27522 17.198 8.16224 17.1985C7.52263 17.2026 6.88064 17.1368 6.25421 17.003C6.24853 17.0015 6.24267 17 6.23681 16.9989C5.81529 16.9085 5.39614 16.7858 4.99091 16.6344V15.4297C4.99091 15.3584 4.99714 15.2872 5.00941 15.2178C5.02186 15.1484 5.03962 15.0812 5.06251 15.0178L6.09362 12.1549H8.87766ZM5.02241 12.5555L5.44064 10.4217L5.49264 11.7485L4.96583 13.2111H4.7384C4.87574 13.0199 4.9748 12.798 5.02241 12.5555ZM0.908781 13.9142H4.71258L4.40129 14.7787C4.39818 14.7873 4.39543 14.7961 4.3925 14.8049H2.00013C1.46435 14.802 1.01535 14.4196 0.908781 13.9142ZM2.34988 15.508H4.28776V16.6468C4.28776 16.9305 4.46538 17.1879 4.73034 17.2877C5.1125 17.4313 5.50619 17.5508 5.903 17.6444L6.47321 19.111L4.8924 22.656C4.80011 22.8635 4.81348 23.094 4.92261 23.285H2.34988V15.508ZM8.88023 23.285L9.43872 22.6449C9.65425 22.3973 9.73921 22.0589 9.66615 21.7395C9.66505 21.735 9.66395 21.7304 9.66267 21.7258L8.96116 19.1421L9.72694 17.7631C10.3263 17.6602 10.9161 17.501 11.4823 17.2877C11.7474 17.1881 11.9258 16.9303 11.9258 16.6463V15.37C11.9258 15.2795 11.9195 15.1907 11.9076 15.1092C11.8961 15.0237 11.8785 14.9387 11.8556 14.8562L11.594 13.9142H21.2735C21.2294 14.1257 21.1248 14.3198 20.9684 14.4762C20.7584 14.6864 20.479 14.8031 20.1836 14.8049H13.406C13.2118 14.8049 13.0545 14.9622 13.0545 15.1565C13.0545 15.3506 13.2118 15.508 13.406 15.508H19.832V23.285H8.88023Z" fill="#B78131"/>
<path d="M14.9891 11.132C15.1834 11.132 15.3407 10.9746 15.3407 10.7805C15.3407 10.1553 15.5328 9.85793 15.7552 9.5135C16.0021 9.13115 16.2821 8.69772 16.2821 7.86529C16.2821 7.03285 16.0021 6.59942 15.7552 6.2169C15.6499 6.05375 15.4322 6.00705 15.2691 6.11234C15.1061 6.21763 15.0592 6.43535 15.1645 6.59833C15.3868 6.94276 15.5789 7.24014 15.5789 7.86529C15.5789 8.49026 15.3868 8.78782 15.1645 9.13207C14.9175 9.51459 14.6377 9.94802 14.6377 10.7805C14.6375 10.9746 14.795 11.132 14.9891 11.132Z" fill="#B78131"/>
<path d="M14.9873 5.30152C15.1816 5.30152 15.3389 5.14422 15.3389 4.94994C15.3389 4.32479 15.531 4.0276 15.7535 3.68316C16.0003 3.30082 16.2803 2.86739 16.2803 2.03496C16.2803 1.84067 16.123 1.68338 15.9287 1.68338C15.7344 1.68338 15.5771 1.84067 15.5771 2.03496C15.5771 2.66011 15.385 2.9573 15.1627 3.30174C14.9157 3.68408 14.6357 4.11751 14.6357 4.94994C14.6357 5.14422 14.7932 5.30152 14.9873 5.30152Z" fill="#B78131"/>
<path d="M17.7012 11.132C17.8955 11.132 18.0528 10.9745 18.0528 10.7804C18.0528 10.1553 18.2449 9.85791 18.4673 9.51347C18.5278 9.4199 18.5902 9.32322 18.6503 9.21793C18.7464 9.0491 18.6874 8.83449 18.5188 8.73835C18.35 8.64222 18.1354 8.701 18.0392 8.86983C17.9889 8.95809 17.9343 9.04269 17.8764 9.13205C17.6296 9.51457 17.3496 9.948 17.3496 10.7804C17.3496 10.9745 17.5071 11.132 17.7012 11.132Z" fill="#B78131"/>
<path d="M18.291 7.86529C18.291 8.05939 18.4485 8.21687 18.6426 8.21687C18.8369 8.21687 18.9942 8.05939 18.9942 7.86529C18.9942 7.03267 18.7142 6.59924 18.4673 6.2169C18.2449 5.87247 18.0529 5.57509 18.0529 4.94994C18.0529 4.32479 18.2449 4.02742 18.4673 3.68316C18.7144 3.30064 18.9942 2.86721 18.9942 2.03496C18.9942 1.84067 18.8369 1.6832 18.6426 1.6832C18.4485 1.6832 18.291 1.84067 18.291 2.03496C18.291 2.65992 18.0989 2.9573 17.8766 3.30174C17.6296 3.68408 17.3496 4.11751 17.3496 4.94994C17.3496 5.78237 17.6296 6.2158 17.8766 6.59833C18.0989 6.94276 18.291 7.24014 18.291 7.86529Z" fill="#B78131"/>
<path d="M20.0361 10.7804C20.0361 10.9745 20.1936 11.132 20.3877 11.132C20.582 11.132 20.7395 10.9745 20.7395 10.7804C20.7395 10.1553 20.9314 9.85792 21.1539 9.51349C21.4009 9.13115 21.6807 8.69772 21.6807 7.86528C21.6807 7.03267 21.4009 6.59924 21.1539 6.2169C20.9314 5.87246 20.7395 5.57508 20.7395 4.94993C20.7395 4.73606 20.7616 4.54965 20.8076 4.3799C20.8583 4.19258 20.7473 3.99939 20.5598 3.94885C20.3727 3.89813 20.1795 4.00891 20.1288 4.19642C20.0665 4.42678 20.0361 4.67325 20.0361 4.94993C20.0361 5.78237 20.3161 6.2158 20.5631 6.59832C20.7854 6.94276 20.9775 7.23995 20.9775 7.86528C20.9775 8.49043 20.7854 8.78763 20.5631 9.13206C20.3161 9.51459 20.0361 9.94802 20.0361 10.7804Z" fill="#B78131"/>
<path d="M20.9391 3.40373C20.9897 3.429 21.0435 3.44109 21.0964 3.44109C21.2252 3.44109 21.3493 3.37022 21.411 3.24717C21.5943 2.88222 21.6797 2.49695 21.6797 2.03496C21.6797 1.84067 21.5224 1.6832 21.3281 1.6832C21.1338 1.6832 20.9765 1.84067 20.9765 2.03496C20.9765 2.48743 20.8729 2.75185 20.7826 2.93166C20.6954 3.10526 20.7655 3.31657 20.9391 3.40373Z" fill="#B78131"/>
</svg>
