<svg width="24" height="25" viewBox="0 0 24 25" fill="none" xmlns="http://www.w3.org/2000/svg">
<path d="M11.282 15.1495C9.65546 15.1495 8.33984 13.8259 8.33984 12.2073C8.33984 12.0877 8.34782 11.9761 8.35579 11.8724C8.52323 10.3894 9.78303 9.26511 11.282 9.26511C12.781 9.26511 14.0408 10.3894 14.2083 11.8724C14.2242 11.9761 14.2242 12.0877 14.2242 12.2073C14.2322 13.8259 12.9086 15.1495 11.282 15.1495ZM11.282 10.0545C10.1897 10.0545 9.27274 10.8757 9.14516 11.9522C9.13719 12.0319 9.12921 12.1116 9.12921 12.1993C9.12921 13.3874 10.094 14.3442 11.2741 14.3442C12.4621 14.3442 13.4189 13.3794 13.4189 12.1993C13.4189 12.1116 13.4109 12.0319 13.403 11.9601C13.2993 10.8757 12.3744 10.0545 11.282 10.0545Z" fill="#B78131"/>
<path d="M11.2819 16.3774C9.60744 16.3774 7.71774 16.3455 6.37023 16.0983C5.79615 15.9947 4.04199 15.6678 4.04199 14.3522C4.04199 13.0445 5.82007 11.9601 8.6905 11.5216L9.20877 11.4419L9.14499 11.9601C9.13701 12.0399 9.12904 12.1196 9.12904 12.1993C9.12904 13.3874 10.0938 14.3442 11.2739 14.3442C12.4619 14.3442 13.4187 13.3794 13.4187 12.1993C13.4187 12.1116 13.4108 12.0319 13.4028 11.9601L13.339 11.4419L13.8573 11.5216C16.7277 11.9601 18.5058 13.0445 18.5058 14.3522C18.5058 15.6757 16.7516 15.9947 16.1775 16.0983C14.846 16.3455 12.9563 16.3774 11.2819 16.3774ZM8.34764 12.3827C6.53768 12.7336 4.84731 13.4751 4.84731 14.3442C4.84731 15.5721 9.2008 15.5721 11.2898 15.5721C13.3789 15.5721 17.7324 15.5721 17.7324 14.3442C17.7324 13.4751 16.042 12.7336 14.232 12.3827C14.1364 13.9216 12.8526 15.1415 11.2898 15.1415C9.71907 15.1495 8.44332 13.9216 8.34764 12.3827Z" fill="#B78131"/>
<path d="M16.7596 24.0239H5.81213V21.2811L2.78223 18.1316H19.7895L16.7596 21.2811V24.0239ZM6.60947 23.2266H15.9623V20.9621L17.9158 18.9289H4.65598L6.60947 20.9621V23.2266Z" fill="#B78131"/>
<path d="M19.6143 18.9289H2.94981C2.02489 18.9289 1.27539 18.1794 1.27539 17.2545C1.27539 16.808 1.45081 16.3854 1.76974 16.0665C2.08071 15.7475 2.5033 15.5721 2.94981 15.5721H19.6143C19.6382 15.5721 19.6701 15.5721 19.694 15.5721H19.702C20.595 15.62 21.2887 16.3535 21.2887 17.2465C21.2887 17.398 21.2648 17.5495 21.2249 17.693C21.2249 17.701 21.2249 17.701 21.2169 17.709C21.1372 17.9801 20.9937 18.2273 20.7943 18.4346C20.7864 18.4425 20.7704 18.4585 20.7624 18.4665C20.4834 18.7296 20.1166 18.8891 19.7339 18.9209C19.702 18.9289 19.6621 18.9289 19.6143 18.9289ZM2.94981 16.3774C2.71858 16.3774 2.49532 16.4651 2.32788 16.6326C2.16044 16.8 2.07273 17.0153 2.07273 17.2545C2.07273 17.7409 2.46343 18.1316 2.94981 18.1316H19.6143C19.6382 18.1316 19.6541 18.1316 19.678 18.1316C19.8854 18.1156 20.0767 18.0359 20.2202 17.8924L20.2282 17.8844L20.2362 17.8764C20.3478 17.7648 20.4196 17.6372 20.4594 17.4937C20.4594 17.4857 20.4594 17.4857 20.4674 17.4778C20.4834 17.406 20.4993 17.3342 20.4993 17.2545C20.4993 16.7841 20.1325 16.4013 19.6701 16.3774C19.6541 16.3774 19.6382 16.3774 19.6222 16.3774H2.94981Z" fill="#B78131"/>
<path d="M20.8507 17.988C20.8028 17.988 20.747 17.9801 20.6992 17.9561C20.5158 17.8764 20.4122 17.6771 20.468 17.4777C20.4919 17.406 20.4999 17.3262 20.4999 17.2465C20.4999 16.7761 20.1331 16.3934 19.6706 16.3694C19.5431 16.3615 19.4234 16.2897 19.3517 16.1781C19.2799 16.0664 19.272 15.9309 19.3278 15.8113C19.862 14.5993 20.1331 13.3156 20.1331 11.9841C20.1331 6.79336 15.9072 2.55947 10.7085 2.55947C8.50784 2.55947 6.37097 3.33289 4.68857 4.73621C4.14638 5.18272 3.34107 5.11096 2.88658 4.56877C2.4321 4.02658 2.51183 3.22126 3.05402 2.76678C5.19887 0.980731 7.91781 0 10.7085 0C17.3105 0 22.6846 5.37409 22.6846 11.9761C22.6846 14.0013 22.1663 16.0027 21.1935 17.7728C21.1218 17.9163 20.9862 17.988 20.8507 17.988ZM20.2367 15.6997C20.5557 15.8272 20.8268 16.0505 21.0181 16.3375C21.5922 14.9661 21.8952 13.491 21.8952 12C21.8952 5.83654 16.8799 0.821262 10.7165 0.821262C8.10917 0.821262 5.57362 1.73821 3.5723 3.40465C3.36499 3.57209 3.34107 3.87508 3.50851 4.08239C3.67595 4.28173 3.98691 4.31362 4.18625 4.14618C6.01216 2.62326 8.33243 1.78605 10.7165 1.78605C16.3537 1.78605 20.9384 6.37076 20.9384 12.008C20.9304 13.2757 20.6912 14.5196 20.2367 15.6997Z" fill="#B78131"/>
<path d="M6.62621 8.65115C6.40296 8.65115 6.22754 8.47574 6.22754 8.25248V5.86843C6.22754 5.64517 6.40296 5.46976 6.62621 5.46976C6.84947 5.46976 7.02489 5.64517 7.02489 5.86843V8.25248C7.02489 8.47574 6.84947 8.65115 6.62621 8.65115Z" fill="#B78131"/>
<path d="M8.95433 7.94153C8.73108 7.94153 8.55566 7.76611 8.55566 7.54286V5.1588C8.55566 4.93555 8.73108 4.76013 8.95433 4.76013C9.17759 4.76013 9.35301 4.93555 9.35301 5.1588V7.54286C9.35301 7.75814 9.17759 7.94153 8.95433 7.94153Z" fill="#B78131"/>
<path d="M11.2825 7.22391C11.0592 7.22391 10.8838 7.04849 10.8838 6.82523V4.44118C10.8838 4.21793 11.0592 4.04251 11.2825 4.04251C11.5057 4.04251 11.6811 4.21793 11.6811 4.44118V6.82523C11.6811 7.04052 11.5057 7.22391 11.2825 7.22391Z" fill="#B78131"/>
<path d="M13.6116 7.94153C13.3883 7.94153 13.2129 7.76611 13.2129 7.54286V5.1588C13.2129 4.93555 13.3883 4.76013 13.6116 4.76013C13.8348 4.76013 14.0102 4.93555 14.0102 5.1588V7.54286C14.0102 7.75814 13.8348 7.94153 13.6116 7.94153Z" fill="#B78131"/>
<path d="M15.9397 8.65115C15.7164 8.65115 15.541 8.47574 15.541 8.25248V5.86843C15.541 5.64517 15.7164 5.46976 15.9397 5.46976C16.1629 5.46976 16.3384 5.64517 16.3384 5.86843V8.25248C16.3384 8.47574 16.1629 8.65115 15.9397 8.65115Z" fill="#B78131"/>
</svg>
