<svg width="28" height="28" viewBox="0 0 28 28" fill="none" xmlns="http://www.w3.org/2000/svg">
<g clip-path="url(#clip0)">
<path d="M8.75 3.0625C9.09778 3.06354 9.43101 3.20215 9.67693 3.44807C9.92285 3.69399 10.0615 4.02722 10.0625 4.375V7.4375H17.9375V4.375C17.9375 4.25897 17.8914 4.14769 17.8094 4.06564C17.7273 3.98359 17.616 3.9375 17.5 3.9375C17.384 3.9375 17.2727 3.98359 17.1906 4.06564C17.1086 4.14769 17.0625 4.25897 17.0625 4.375V5.6875H16.1875V4.375C16.1875 4.0269 16.3258 3.69306 16.5719 3.44692C16.8181 3.20078 17.1519 3.0625 17.5 3.0625C17.8481 3.0625 18.1819 3.20078 18.4281 3.44692C18.6742 3.69306 18.8125 4.0269 18.8125 4.375V17.0625H17.9375V14.4375H10.0625V17.0625H9.1875V4.375C9.1875 4.25897 9.14141 4.14769 9.05936 4.06564C8.97731 3.98359 8.86603 3.9375 8.75 3.9375C8.63397 3.9375 8.52269 3.98359 8.44064 4.06564C8.35859 4.14769 8.3125 4.25897 8.3125 4.375V5.6875H7.4375V4.375C7.43854 4.02722 7.57715 3.69399 7.82307 3.44807C8.06899 3.20215 8.40222 3.06354 8.75 3.0625ZM10.0625 13.5625H17.9375V11.375H10.0625V13.5625ZM10.0625 10.5H17.9375V8.3125H10.0625V10.5Z" fill="#777777"/>
<path d="M8.3125 14H0.875V14.875H8.3125V14Z" fill="#777777"/>
<path d="M27.125 14H19.6875V14.875H27.125V14Z" fill="#777777"/>
<path d="M2.0125 19.3899C2.21279 19.1035 2.47922 18.8697 2.78916 18.7082C3.09911 18.5467 3.44343 18.4624 3.79291 18.4624C4.14238 18.4624 4.48671 18.5467 4.79665 18.7082C5.1066 18.8697 5.37302 19.1035 5.57331 19.3899C5.92331 19.7657 6.17356 20.0374 6.71081 20.0374C7.24806 20.0374 7.49831 19.7661 7.84831 19.3899C8.0483 19.1034 8.3145 18.8695 8.62428 18.7079C8.93405 18.5464 9.27826 18.462 9.62762 18.462C9.97699 18.462 10.3212 18.5464 10.631 18.7079C10.9408 18.8695 11.207 19.1034 11.4069 19.3899C11.7543 19.7657 12.0054 20.0369 12.5444 20.0369C13.0834 20.0369 13.3319 19.7657 13.6819 19.3894C13.8819 19.1031 14.1481 18.8692 14.4579 18.7077C14.7676 18.5462 15.1117 18.4619 15.461 18.4619C15.8103 18.4619 16.1545 18.5462 16.4642 18.7077C16.7739 18.8692 17.0401 19.1031 17.2401 19.3894C17.5879 19.7657 17.8391 20.0369 18.3776 20.0369C18.9162 20.0369 19.1651 19.7657 19.5151 19.3894C19.721 19.1092 19.9884 18.8798 20.2968 18.719C20.6052 18.5582 20.9463 18.4703 21.294 18.4619C21.6416 18.4704 21.9827 18.5583 22.291 18.7191C22.5992 18.8799 22.8666 19.1092 23.0724 19.3894C23.4203 19.7657 23.6714 20.0369 24.2099 20.0369C24.7485 20.0369 24.9974 19.7657 25.3474 19.3894C25.5532 19.1094 25.8205 18.8803 26.1286 18.7196C26.4367 18.5589 26.7776 18.4709 27.125 18.4624V19.3374C26.5873 19.3374 26.3375 19.6086 25.9875 19.9849C25.7818 20.2649 25.5147 20.4941 25.2066 20.6549C24.8985 20.8157 24.5578 20.9038 24.2104 20.9124C23.8627 20.904 23.5216 20.8161 23.2132 20.6553C22.9048 20.4945 22.6374 20.2652 22.4315 19.9849C22.0841 19.6086 21.8326 19.3374 21.294 19.3374C20.7554 19.3374 20.5065 19.6086 20.1565 19.9844C19.9508 20.2646 19.6836 20.494 19.3755 20.6548C19.0673 20.8157 18.7264 20.9038 18.3789 20.9124C18.0313 20.904 17.6901 20.8161 17.3817 20.6553C17.0734 20.4945 16.806 20.2652 16.6001 19.9849C16.2501 19.6086 16.0011 19.3374 15.4626 19.3374C14.924 19.3374 14.6751 19.6086 14.3251 19.9849C14.1252 20.2713 13.8591 20.5051 13.5494 20.6666C13.2397 20.8281 12.8957 20.9124 12.5464 20.9124C12.1972 20.9124 11.8531 20.8281 11.5434 20.6666C11.2337 20.5051 10.9677 20.2713 10.7677 19.9849C10.4177 19.6086 10.1688 19.3374 9.63025 19.3374C9.09169 19.3374 8.84275 19.6086 8.49275 19.9849C8.29251 20.2713 8.02612 20.5051 7.71621 20.6666C7.4063 20.828 7.06201 20.9124 6.71256 20.9124C6.36311 20.9124 6.01882 20.828 5.70891 20.6666C5.399 20.5051 5.13262 20.2713 4.93237 19.9849C4.58237 19.6091 4.33212 19.3374 3.79487 19.3374C3.25763 19.3374 3.00431 19.6086 2.65738 19.9849C2.45096 20.2655 2.18296 20.495 1.87397 20.6558C1.56498 20.8165 1.22323 20.9043 0.875 20.9124V20.0374C1.414 20.0374 1.666 19.7657 2.0125 19.3899Z" fill="#777777"/>
<path d="M6.81695 28.1078C6.31895 28.1078 5.83595 28.0418 5.36795 27.9098C4.90595 27.7718 4.53395 27.5948 4.25195 27.3788L4.74695 26.2808C5.01695 26.4788 5.33795 26.6378 5.70995 26.7578C6.08195 26.8778 6.45395 26.9378 6.82595 26.9378C7.23995 26.9378 7.54595 26.8778 7.74395 26.7578C7.94195 26.6318 8.04095 26.4668 8.04095 26.2628C8.04095 26.1128 7.98095 25.9898 7.86095 25.8938C7.74695 25.7918 7.59695 25.7108 7.41095 25.6508C7.23095 25.5908 6.98495 25.5248 6.67295 25.4528C6.19295 25.3388 5.79995 25.2248 5.49395 25.1108C5.18795 24.9968 4.92395 24.8138 4.70195 24.5618C4.48595 24.3098 4.37795 23.9738 4.37795 23.5538C4.37795 23.1878 4.47695 22.8578 4.67495 22.5638C4.87295 22.2638 5.16995 22.0268 5.56595 21.8528C5.96795 21.6788 6.45695 21.5918 7.03295 21.5918C7.43495 21.5918 7.82795 21.6398 8.21195 21.7358C8.59595 21.8318 8.93195 21.9698 9.21995 22.1498L8.76995 23.2568C8.18795 22.9268 7.60595 22.7618 7.02395 22.7618C6.61595 22.7618 6.31295 22.8278 6.11495 22.9598C5.92295 23.0918 5.82695 23.2658 5.82695 23.4818C5.82695 23.6978 5.93795 23.8598 6.15995 23.9678C6.38795 24.0698 6.73295 24.1718 7.19495 24.2738C7.67495 24.3878 8.06795 24.5018 8.37395 24.6158C8.67995 24.7298 8.94095 24.9098 9.15695 25.1558C9.37895 25.4018 9.48995 25.7348 9.48995 26.1548C9.48995 26.5148 9.38795 26.8448 9.18395 27.1448C8.98595 27.4388 8.68595 27.6728 8.28395 27.8468C7.88195 28.0208 7.39295 28.1078 6.81695 28.1078Z" fill="#777777"/>
<path d="M13.2132 21.6998C13.7712 21.6998 14.2542 21.7928 14.6622 21.9788C15.0762 22.1648 15.3942 22.4288 15.6162 22.7708C15.8382 23.1128 15.9492 23.5178 15.9492 23.9858C15.9492 24.4478 15.8382 24.8528 15.6162 25.2008C15.3942 25.5428 15.0762 25.8068 14.6622 25.9928C14.2542 26.1728 13.7712 26.2628 13.2132 26.2628H11.9442V27.9998H10.4862V21.6998H13.2132ZM13.1322 25.0748C13.5702 25.0748 13.9032 24.9818 14.1312 24.7958C14.3592 24.6038 14.4732 24.3338 14.4732 23.9858C14.4732 23.6318 14.3592 23.3618 14.1312 23.1758C13.9032 22.9838 13.5702 22.8878 13.1322 22.8878H11.9442V25.0748H13.1322Z" fill="#777777"/>
<path d="M20.8227 26.6498H17.8977L17.3397 27.9998H15.8457L18.6537 21.6998H20.0937L22.9107 27.9998H21.3807L20.8227 26.6498ZM20.3637 25.5428L19.3647 23.1308L18.3657 25.5428H20.3637Z" fill="#777777"/>
</g>
</svg>
