<svg width="24" height="24" viewBox="0 0 24 24" fill="none" xmlns="http://www.w3.org/2000/svg">
<path d="M9.71087 19.5769C12.1015 19.5769 14.2874 18.6979 15.9756 17.2534L22.4845 23.7619C22.6322 23.9089 22.8242 23.9824 23.017 23.9824C23.2094 23.9824 23.4014 23.9089 23.548 23.7619C23.6957 23.6145 23.7689 23.4229 23.7689 23.2301C23.7689 23.0374 23.6957 22.8454 23.548 22.6984L17.0387 16.1895C18.484 14.502 19.363 12.3154 19.363 9.92436C19.363 4.60124 15.0332 0.271484 9.71087 0.271484C4.38812 0.271484 0.0576172 4.60124 0.0576172 9.92436C0.0572422 15.2467 4.38774 19.5769 9.71087 19.5769ZM9.71087 1.77523C14.203 1.77523 17.8592 5.43074 17.8592 9.92399C17.8592 14.4169 14.203 18.0724 9.71087 18.0724C5.21724 18.0724 1.56174 14.4172 1.56174 9.92399C1.56137 5.43074 5.21687 1.77523 9.71087 1.77523Z" fill="white"/>
<path d="M6.80596 10.6767H8.69634V12.567C8.69634 12.9822 9.03309 13.3189 9.44859 13.3189C9.86446 13.3189 10.2008 12.9825 10.2008 12.567V10.6767H12.092C12.5075 10.6767 12.8435 10.3399 12.8435 9.92442C12.8435 9.50892 12.5075 9.17217 12.092 9.17217H10.2008V7.28142C10.2008 6.86592 9.86484 6.52954 9.44859 6.52954C9.03346 6.52954 8.69634 6.86554 8.69634 7.28142V9.17217H6.80596C6.39084 9.17217 6.05371 9.50892 6.05371 9.92442C6.05371 10.3399 6.39084 10.6767 6.80596 10.6767Z" fill="white"/>
</svg>
