<svg width="72" height="71" viewBox="0 0 72 71" fill="none" xmlns="http://www.w3.org/2000/svg">
<path d="M28.1112 46.8891C31.543 46.1756 33.5476 42.8798 33.5476 42.8798L34.0748 63.0285C34.0748 63.0285 32.1241 62.8548 30.5576 61.9752C29.4422 61.3489 28.3047 60.0399 27.3297 59.291C24.9852 57.4901 21.3157 56.3689 20.1604 55.8932C19.0051 55.4175 16.253 53.0391 16.253 53.0391C16.253 53.0391 12.6174 49.7772 11.8359 46.1756C11.0544 42.574 11.0884 39.9237 11.3602 38.9384C11.632 37.953 13.3989 32.5166 14.9618 27.6578C16.5248 22.799 15.6754 21.6778 15.6754 21.6778C15.6754 21.6778 14.8939 17.6344 10.9525 15.324C7.01109 13.0135 2.69594 11.9602 2.69594 11.9602C2.69594 11.9602 1.77853 10.3293 2.05035 8.73232C2.32217 7.13537 3.57934 6.69366 3.57934 6.69366C3.57934 6.69366 11.632 7.71299 16.4229 11.9602C21.2137 16.2074 21.1797 22.2554 21.2137 22.6291C21.2477 23.0029 21.6868 23.8184 24.5095 23.9203C27.3323 24.0222 27.9752 22.6291 27.9752 22.6291L24.7134 29.6965C24.7134 29.6965 24.1018 29.0509 23.2863 28.881C22.4709 28.7111 21.2817 28.949 21.2817 28.949C21.2817 28.949 18.4955 29.6965 18.3936 36.6959C18.2916 43.6953 21.3157 44.8505 21.3157 44.8505C21.3157 44.8505 24.6795 47.6027 28.1112 46.8891Z" fill="url(#paint0_linear)"/>
<path d="M66.1497 50.5247C66.5235 52.2236 66.6254 53.6166 66.4215 55.2476C66.2177 56.8785 65.2323 58.9511 64.1111 60.582C62.9898 62.213 60.2716 63.0284 60.2716 63.0284H47.1562V0.373779H56.1263C56.1263 0.373779 56.7702 0.514036 57.1796 1.32515C57.4773 1.91486 57.5874 2.41243 57.5874 3.53369C57.5874 4.65495 55.6846 6.38781 55.6846 6.38781C55.6846 6.38781 54.2915 7.74691 53.8159 8.69829C53.3402 9.64966 54.0537 10.4651 54.0537 10.4651C54.0537 10.4651 54.7769 11.0838 56.2622 12.198C57.7363 13.3037 59.6974 14.5623 60.5774 15.3239C62.3442 16.8529 65.2663 19.8769 66.0478 21.27C66.8293 22.6631 68.6722 25.7923 69.4116 28.0655C69.9005 29.5686 69.9885 31.0711 69.8533 31.4633C69.5135 32.4486 68.8 33.1961 68.4262 33.434C68.0525 33.6718 65.776 34.6911 64.1111 35.7444C62.4462 36.7977 61.223 39.1422 61.223 39.1422C61.223 39.1422 60.2716 41.6226 61.223 43.3894C62.1743 45.1562 63.6694 46.0736 64.3149 46.7532C64.9605 47.4327 65.776 48.8258 66.1497 50.5247Z" fill="#A97456"/>
<path d="M28.1862 50.5247C27.8125 52.2236 27.7105 53.6166 27.9144 55.2476C28.1183 56.8785 29.1036 58.9511 30.2249 60.582C31.3461 62.213 34.0643 63.0284 34.0643 63.0284H47.1797V0.373779H38.2096C38.2096 0.373779 37.5657 0.514036 37.1563 1.32515C36.8586 1.91486 36.7486 2.41243 36.7486 3.53369C36.7486 4.65495 38.6513 6.38781 38.6513 6.38781C38.6513 6.38781 40.0444 7.74691 40.5201 8.69829C40.9958 9.64966 40.2822 10.4651 40.2822 10.4651C40.2822 10.4651 39.5591 11.0838 38.0737 12.198C36.5997 13.3037 34.6386 14.5623 33.7585 15.3239C31.9917 16.8529 29.0696 19.8769 28.2882 21.27C27.5067 22.6631 25.6638 25.7923 24.9244 28.0655C24.4355 29.5686 24.3474 31.0711 24.4827 31.4633C24.8224 32.4486 25.536 33.1961 25.9097 33.434C26.2835 33.6718 28.56 34.6911 30.2249 35.7444C31.8898 36.7977 33.113 39.1422 33.113 39.1422C33.113 39.1422 34.0643 41.6226 33.113 43.3894C32.1616 45.1562 30.6666 46.0736 30.021 46.7532C29.3754 47.4327 28.56 48.8258 28.1862 50.5247Z" fill="#A97456"/>
<rect x="36.3164" y="6.10352e-05" width="21.7456" height="6.25187" rx="3.12594" fill="url(#paint1_linear)"/>
<rect x="28.7734" y="60.684" width="36.8317" height="4.41708" rx="2.20854" fill="url(#paint2_linear)"/>
<rect x="41.5488" y="69.9938" width="0.0679552" height="0.0679552" fill="#C4C4C4"/>
<path d="M46.6593 26.572L40.4956 37.0817C39.2004 39.3036 39.1003 42.1288 40.4956 44.5079C42.5931 48.0843 47.2588 49.3211 50.9168 47.2704C54.5748 45.2197 55.8399 40.6581 53.7424 37.0817L47.5786 26.572C47.375 26.2249 46.8629 26.2249 46.6593 26.572Z" fill="url(#paint3_linear)"/>
<defs>
<linearGradient id="paint0_linear" x1="2.29339" y1="9.39797" x2="48.0849" y2="54.3336" gradientUnits="userSpaceOnUse">
<stop stop-color="#CF9D80"/>
<stop offset="1" stop-color="#CF9D80" stop-opacity="0.8"/>
</linearGradient>
<linearGradient id="paint1_linear" x1="36.5153" y1="0.300177" x2="38.1651" y2="10.1904" gradientUnits="userSpaceOnUse">
<stop stop-color="#CF9D80"/>
<stop offset="1" stop-color="#CF9D80" stop-opacity="0.8"/>
</linearGradient>
<linearGradient id="paint2_linear" x1="29.1103" y1="60.8961" x2="29.6077" y2="68.0435" gradientUnits="userSpaceOnUse">
<stop stop-color="#CF9D80"/>
<stop offset="1" stop-color="#CF9D80"/>
</linearGradient>
<linearGradient id="paint3_linear" x1="39.626" y1="27.3653" x2="57.1805" y2="48.4128" gradientUnits="userSpaceOnUse">
<stop stop-color="#CF9D80"/>
<stop offset="1" stop-color="#CF9D80" stop-opacity="0.8"/>
</linearGradient>
</defs>
</svg>
